<?xml version="1.0" encoding="UTF-8" standalone="yes"?>
<svg width="500" viewBox="0 0 375 374.999991" height="500" preserveAspectRatio="xMidYMid meet" version="1.2" baseProfile="tiny-ps" xmlns="http://www.w3.org/2000/svg">
  <title>bimi-svg-tiny-12-ps</title>
  <defs>
    <g/>
  </defs>
  <path fill="#000000" d="M 93.109375 60.300781 L 155.96875 60.300781 L 155.96875 123.164062 L 93.109375 123.164062 Z M 164.949219 60.300781 L 209.847656 60.300781 L 209.847656 78.261719 L 200.867188 78.261719 L 200.867188 87.242188 L 191.886719 87.242188 L 191.886719 69.28125 L 173.929688 69.28125 L 173.929688 78.261719 L 182.910156 78.261719 L 182.910156 87.242188 L 173.929688 87.242188 L 173.929688 105.203125 L 164.949219 105.203125 Z M 218.828125 60.300781 L 281.6875 60.300781 L 281.6875 123.164062 L 218.828125 123.164062 Z M 102.089844 69.28125 L 102.089844 114.183594 L 146.988281 114.183594 L 146.988281 69.28125 Z M 227.808594 69.28125 L 227.808594 114.183594 L 272.707031 114.183594 L 272.707031 69.28125 Z M 111.066406 78.261719 L 138.007812 78.261719 L 138.007812 105.203125 L 111.066406 105.203125 Z M 236.789062 78.261719 L 263.730469 78.261719 L 263.730469 105.203125 L 236.789062 105.203125 Z M 191.886719 96.222656 L 200.867188 96.222656 L 200.867188 105.203125 L 209.847656 105.203125 L 209.847656 123.164062 L 200.867188 123.164062 L 200.867188 114.183594 L 191.886719 114.183594 Z M 173.929688 105.203125 L 182.910156 105.203125 L 182.910156 114.183594 L 173.929688 114.183594 Z M 164.949219 114.183594 L 173.929688 114.183594 L 173.929688 132.140625 L 164.949219 132.140625 Z M 182.910156 114.183594 L 191.886719 114.183594 L 191.886719 132.140625 L 182.910156 132.140625 Z M 102.089844 132.140625 L 120.046875 132.140625 L 120.046875 141.121094 L 129.027344 141.121094 L 129.027344 150.101562 L 120.046875 150.101562 L 120.046875 159.082031 L 102.089844 159.082031 L 102.089844 168.0625 L 93.109375 168.0625 L 93.109375 141.121094 L 102.089844 141.121094 Z M 129.027344 132.140625 L 138.007812 132.140625 L 138.007812 141.121094 L 129.027344 141.121094 Z M 146.988281 132.140625 L 164.949219 132.140625 L 164.949219 141.121094 L 146.988281 141.121094 Z M 173.929688 132.140625 L 182.910156 132.140625 L 182.910156 141.121094 L 173.929688 141.121094 Z M 191.886719 132.140625 L 200.867188 132.140625 L 200.867188 141.121094 L 209.847656 141.121094 L 209.847656 150.101562 L 182.910156 150.101562 L 182.910156 141.121094 L 191.886719 141.121094 Z M 218.828125 132.140625 L 227.808594 132.140625 L 227.808594 141.121094 L 218.828125 141.121094 Z M 236.789062 132.140625 L 281.6875 132.140625 L 281.6875 159.082031 L 254.75 159.082031 L 254.75 150.101562 L 272.707031 150.101562 L 272.707031 141.121094 L 245.769531 141.121094 L 245.769531 159.082031 L 236.789062 159.082031 L 236.789062 168.0625 L 254.75 168.0625 L 254.75 186.023438 L 245.769531 186.023438 L 245.769531 195.003906 L 254.75 195.003906 L 254.75 203.984375 L 236.789062 203.984375 L 236.789062 195.003906 L 227.808594 195.003906 L 227.808594 159.082031 L 209.847656 159.082031 L 209.847656 150.101562 L 227.808594 150.101562 L 227.808594 141.121094 L 236.789062 141.121094 Z M 129.027344 150.101562 L 138.007812 150.101562 L 138.007812 159.082031 L 146.988281 159.082031 L 146.988281 168.0625 L 164.949219 168.0625 L 164.949219 159.082031 L 146.988281 159.082031 L 146.988281 150.101562 L 173.929688 150.101562 L 173.929688 159.082031 L 191.886719 159.082031 L 191.886719 177.042969 L 182.910156 177.042969 L 182.910156 168.0625 L 173.929688 168.0625 L 173.929688 195.003906 L 164.949219 195.003906 L 164.949219 177.042969 L 129.027344 177.042969 L 129.027344 168.0625 L 120.046875 168.0625 L 120.046875 159.082031 L 129.027344 159.082031 Z M 200.867188 168.0625 L 218.828125 168.0625 L 218.828125 203.984375 L 209.847656 203.984375 L 209.847656 177.042969 L 200.867188 177.042969 Z M 272.707031 168.0625 L 281.6875 168.0625 L 281.6875 195.003906 L 263.730469 195.003906 L 263.730469 186.023438 L 272.707031 186.023438 Z M 191.886719 177.042969 L 200.867188 177.042969 L 200.867188 186.023438 L 191.886719 186.023438 Z M 93.109375 186.023438 L 155.96875 186.023438 L 155.96875 248.882812 L 93.109375 248.882812 Z M 182.910156 186.023438 L 191.886719 186.023438 L 191.886719 195.003906 L 182.910156 195.003906 Z M 102.089844 195.003906 L 102.089844 239.902344 L 146.988281 239.902344 L 146.988281 195.003906 Z M 111.066406 203.984375 L 138.007812 203.984375 L 138.007812 230.921875 L 111.066406 230.921875 Z M 164.949219 203.984375 L 200.867188 203.984375 L 200.867188 212.960938 L 191.886719 212.960938 L 191.886719 239.902344 L 182.910156 239.902344 L 182.910156 230.921875 L 173.929688 230.921875 L 173.929688 239.902344 L 164.949219 239.902344 L 164.949219 221.941406 L 173.929688 221.941406 L 173.929688 212.960938 L 164.949219 212.960938 Z M 218.828125 203.984375 L 236.789062 203.984375 L 236.789062 212.960938 L 245.769531 212.960938 L 245.769531 248.882812 L 236.789062 248.882812 L 236.789062 230.921875 L 227.808594 230.921875 L 227.808594 221.941406 L 218.828125 221.941406 Z M 254.75 212.960938 L 272.707031 212.960938 L 272.707031 221.941406 L 254.75 221.941406 Z M 200.867188 221.941406 L 209.847656 221.941406 L 209.847656 230.921875 L 200.867188 230.921875 Z M 272.707031 221.941406 L 281.6875 221.941406 L 281.6875 230.921875 L 272.707031 230.921875 Z M 218.828125 230.921875 L 227.808594 230.921875 L 227.808594 248.882812 L 218.828125 248.882812 Z M 263.730469 230.921875 L 272.707031 230.921875 L 272.707031 239.902344 L 281.6875 239.902344 L 281.6875 248.882812 L 263.730469 248.882812 Z M 173.929688 239.902344 L 182.910156 239.902344 L 182.910156 248.882812 L 173.929688 248.882812 Z M 200.867188 239.902344 L 209.847656 239.902344 L 209.847656 248.882812 L 200.867188 248.882812 Z M 200.867188 239.902344 " fill-opacity="1" fill-rule="nonzero"/>
  <g>
    <path fill="#000000" d="M 204.707031 202.535156 C 204.703125 201.457031 204.855469 200.398438 205.167969 199.359375 C 205.476562 198.324219 205.929688 197.351562 206.527344 196.441406 C 207.125 195.535156 207.84375 194.726562 208.679688 194.019531 C 209.519531 193.3125 210.441406 192.738281 211.449219 192.292969 L 211.449219 165.886719 C 211.449219 165.628906 211.542969 165.40625 211.730469 165.222656 L 215.585938 161.464844 C 215.773438 161.28125 216 161.1875 216.265625 161.1875 C 216.53125 161.1875 216.757812 161.28125 216.945312 161.464844 L 220.796875 165.222656 C 220.984375 165.40625 221.082031 165.628906 221.082031 165.886719 L 221.082031 169.644531 C 221.082031 169.90625 220.984375 170.128906 220.796875 170.3125 L 218.589844 172.464844 L 220.796875 174.621094 C 220.984375 174.804688 221.082031 175.023438 221.082031 175.285156 C 221.082031 175.542969 220.984375 175.765625 220.796875 175.949219 L 218.589844 178.101562 L 220.796875 180.257812 C 220.984375 180.441406 221.082031 180.664062 221.082031 180.921875 C 221.082031 181.183594 220.984375 181.402344 220.796875 181.585938 L 218.589844 183.742188 L 220.796875 185.894531 C 220.984375 186.078125 221.082031 186.300781 221.082031 186.5625 L 221.082031 192.292969 C 221.707031 192.574219 222.300781 192.90625 222.867188 193.289062 C 223.433594 193.675781 223.957031 194.105469 224.445312 194.582031 C 224.929688 195.058594 225.371094 195.570312 225.761719 196.125 C 226.15625 196.675781 226.492188 197.257812 226.777344 197.871094 C 227.0625 198.484375 227.292969 199.113281 227.460938 199.765625 C 227.628906 200.417969 227.738281 201.078125 227.789062 201.75 C 227.835938 202.421875 227.820312 203.089844 227.746094 203.757812 C 227.671875 204.425781 227.539062 205.082031 227.34375 205.730469 C 227.148438 206.375 226.894531 206.996094 226.585938 207.597656 C 226.277344 208.199219 225.917969 208.765625 225.503906 209.304688 C 225.089844 209.84375 224.628906 210.339844 224.125 210.796875 C 223.621094 211.253906 223.078125 211.664062 222.5 212.027344 C 221.917969 212.390625 221.308594 212.699219 220.671875 212.957031 C 220.035156 213.214844 219.378906 213.414062 218.707031 213.554688 C 218.035156 213.699219 217.351562 213.78125 216.664062 213.804688 C 215.976562 213.828125 215.289062 213.792969 214.609375 213.695312 C 213.925781 213.597656 213.257812 213.445312 212.605469 213.230469 C 211.953125 213.019531 211.324219 212.75 210.71875 212.429688 C 210.113281 212.105469 209.542969 211.734375 209.007812 211.3125 C 208.472656 210.890625 207.976562 210.425781 207.527344 209.917969 C 207.074219 209.40625 206.675781 208.863281 206.324219 208.285156 C 205.972656 207.707031 205.675781 207.105469 205.433594 206.472656 C 205.195312 205.84375 205.011719 205.199219 204.890625 204.535156 C 204.769531 203.875 204.707031 203.207031 204.707031 202.535156 Z M 219.152344 207.234375 C 219.152344 206.859375 219.082031 206.5 218.933594 206.15625 C 218.789062 205.808594 218.578125 205.503906 218.308594 205.238281 C 218.039062 204.976562 217.726562 204.773438 217.371094 204.628906 C 217.015625 204.484375 216.648438 204.414062 216.265625 204.414062 C 215.882812 204.414062 215.511719 204.484375 215.160156 204.628906 C 214.804688 204.773438 214.492188 204.976562 214.222656 205.238281 C 213.953125 205.503906 213.742188 205.808594 213.597656 206.15625 C 213.449219 206.5 213.375 206.859375 213.375 207.234375 C 213.375 207.605469 213.449219 207.96875 213.597656 208.3125 C 213.742188 208.65625 213.953125 208.960938 214.222656 209.226562 C 214.492188 209.492188 214.804688 209.695312 215.160156 209.835938 C 215.511719 209.980469 215.882812 210.050781 216.265625 210.050781 C 216.648438 210.050781 217.015625 209.980469 217.371094 209.835938 C 217.722656 209.695312 218.035156 209.488281 218.308594 209.226562 C 218.578125 208.960938 218.785156 208.65625 218.933594 208.3125 C 219.082031 207.964844 219.152344 207.605469 219.152344 207.234375 Z M 219.152344 207.234375 " fill-opacity="1" fill-rule="nonzero"/>
  </g>
  <g fill="#4169e1" fill-opacity="1">
    <g transform="translate(89.022076, 319.940984)">
      <g>
        <path d="M 15.765625 2.8125 L 14.609375 0 L 7.703125 0 C 6.554688 0 5.578125 -0.398438 4.765625 -1.203125 C 3.960938 -2.015625 3.5625 -2.992188 3.5625 -4.140625 L 3.5625 -36.25 C 3.5625 -37.351562 3.960938 -38.296875 4.765625 -39.078125 C 5.578125 -39.867188 6.554688 -40.265625 7.703125 -40.265625 L 20.828125 -40.265625 C 21.972656 -40.265625 22.945312 -39.867188 23.75 -39.078125 C 24.5625 -38.296875 24.96875 -37.351562 24.96875 -36.25 L 24.96875 -4.140625 C 24.96875 -2.992188 24.5625 -2.015625 23.75 -1.203125 C 22.945312 -0.398438 21.972656 0 20.828125 0 L 19.96875 0 L 21.109375 2.8125 Z M 11.046875 -5.34375 L 12.421875 -5.34375 L 11.109375 -8.796875 L 16.515625 -8.796875 L 17.828125 -5.34375 C 18.296875 -5.425781 18.703125 -5.664062 19.046875 -6.0625 C 19.390625 -6.46875 19.5625 -6.921875 19.5625 -7.421875 L 19.5625 -32.96875 C 19.5625 -33.5 19.367188 -33.96875 18.984375 -34.375 C 18.597656 -34.78125 18.097656 -34.984375 17.484375 -34.984375 L 11.046875 -34.984375 C 10.429688 -34.984375 9.929688 -34.78125 9.546875 -34.375 C 9.160156 -33.96875 8.96875 -33.5 8.96875 -32.96875 L 8.96875 -7.421875 C 8.96875 -6.847656 9.160156 -6.359375 9.546875 -5.953125 C 9.929688 -5.546875 10.429688 -5.34375 11.046875 -5.34375 Z M 11.046875 -5.34375 "/>
      </g>
    </g>
  </g>
  <g fill="#4169e1" fill-opacity="1">
    <g transform="translate(117.549849, 319.940984)">
      <g>
        <path d="M 11.328125 0 L 11.328125 -34.921875 L 3.34375 -34.921875 L 3.34375 -40.265625 L 24.6875 -40.265625 L 24.6875 -34.921875 L 16.6875 -34.921875 L 16.6875 0 Z M 11.328125 0 "/>
      </g>
    </g>
  </g>
  <g fill="#4169e1" fill-opacity="1">
    <g transform="translate(145.559983, 319.940984)">
      <g>
        <path d="M 3.453125 0 L 3.453125 -40.265625 L 20.71875 -40.265625 C 21.820312 -40.265625 22.773438 -39.863281 23.578125 -39.0625 C 24.390625 -38.257812 24.796875 -37.28125 24.796875 -36.125 L 24.796875 -23.765625 C 24.796875 -22.609375 24.390625 -21.628906 23.578125 -20.828125 C 22.773438 -20.023438 21.820312 -19.625 20.71875 -19.625 L 19.5 -19.625 L 24.796875 0 L 19.5 0 L 14.15625 -19.625 L 8.796875 -19.625 L 8.796875 0 Z M 8.796875 -24.96875 L 17.4375 -24.96875 C 17.96875 -24.96875 18.441406 -25.164062 18.859375 -25.5625 C 19.285156 -25.96875 19.5 -26.460938 19.5 -27.046875 L 19.5 -32.84375 C 19.5 -33.425781 19.285156 -33.914062 18.859375 -34.3125 C 18.441406 -34.71875 17.96875 -34.921875 17.4375 -34.921875 L 8.796875 -34.921875 Z M 8.796875 -24.96875 "/>
      </g>
    </g>
  </g>
  <g fill="#000000" fill-opacity="1">
    <g transform="translate(173.807227, 319.940984)">
      <g>
        <path d="M 7.703125 0 C 6.628906 0 5.671875 -0.398438 4.828125 -1.203125 C 3.984375 -2.015625 3.5625 -2.992188 3.5625 -4.140625 L 3.5625 -36.125 C 3.5625 -37.238281 3.984375 -38.207031 4.828125 -39.03125 C 5.671875 -39.851562 6.628906 -40.265625 7.703125 -40.265625 L 20.765625 -40.265625 C 21.953125 -40.265625 22.9375 -39.851562 23.71875 -39.03125 C 24.507812 -38.207031 24.90625 -37.238281 24.90625 -36.125 L 24.90625 -28.65625 L 19.5625 -27.4375 L 19.5625 -32.84375 C 19.5625 -33.382812 19.378906 -33.863281 19.015625 -34.28125 C 18.648438 -34.707031 18.160156 -34.921875 17.546875 -34.921875 L 10.984375 -34.921875 C 10.453125 -34.921875 9.972656 -34.707031 9.546875 -34.28125 C 9.128906 -33.863281 8.921875 -33.382812 8.921875 -32.84375 L 8.921875 -7.421875 C 8.921875 -6.804688 9.128906 -6.304688 9.546875 -5.921875 C 9.972656 -5.535156 10.453125 -5.34375 10.984375 -5.34375 L 17.546875 -5.34375 C 18.160156 -5.34375 18.648438 -5.535156 19.015625 -5.921875 C 19.378906 -6.304688 19.5625 -6.804688 19.5625 -7.421875 L 19.5625 -11.625 L 24.90625 -12.890625 L 24.90625 -4.140625 C 24.90625 -2.992188 24.507812 -2.015625 23.71875 -1.203125 C 22.9375 -0.398438 21.953125 0 20.765625 0 Z M 7.703125 0 "/>
      </g>
    </g>
  </g>
  <g fill="#000000" fill-opacity="1">
    <g transform="translate(202.277481, 319.940984)">
      <g>
        <path d="M 6.96875 0 C 5.769531 0 4.769531 -0.410156 3.96875 -1.234375 C 3.164062 -2.054688 2.765625 -3.046875 2.765625 -4.203125 L 2.765625 -24.5625 C 2.765625 -25.71875 3.164062 -26.707031 3.96875 -27.53125 C 4.769531 -28.351562 5.769531 -28.765625 6.96875 -28.765625 L 14.78125 -28.765625 C 15.9375 -28.765625 16.914062 -28.351562 17.71875 -27.53125 C 18.519531 -26.707031 18.921875 -25.71875 18.921875 -24.5625 L 18.921875 -4.203125 C 18.921875 -3.046875 18.519531 -2.054688 17.71875 -1.234375 C 16.914062 -0.410156 15.9375 0 14.78125 0 Z M 10.234375 -5.40625 L 11.453125 -5.40625 C 12.023438 -5.40625 12.519531 -5.601562 12.9375 -6 C 13.363281 -6.40625 13.578125 -6.898438 13.578125 -7.484375 L 13.578125 -21.28125 C 13.578125 -21.863281 13.363281 -22.351562 12.9375 -22.75 C 12.519531 -23.15625 12.023438 -23.359375 11.453125 -23.359375 L 10.234375 -23.359375 C 9.660156 -23.359375 9.171875 -23.15625 8.765625 -22.75 C 8.367188 -22.351562 8.171875 -21.863281 8.171875 -21.28125 L 8.171875 -7.484375 C 8.171875 -6.898438 8.367188 -6.40625 8.765625 -6 C 9.171875 -5.601562 9.660156 -5.40625 10.234375 -5.40625 Z M 10.234375 -5.40625 "/>
      </g>
    </g>
  </g>
  <g fill="#000000" fill-opacity="1">
    <g transform="translate(223.558284, 319.940984)">
      <g>
        <path d="M 6.5 0 C 5.3125 0 4.3125 -0.398438 3.5 -1.203125 C 2.695312 -2.015625 2.296875 -3.015625 2.296875 -4.203125 L 2.296875 -24.5625 C 2.296875 -25.75 2.695312 -26.742188 3.5 -27.546875 C 4.3125 -28.359375 5.3125 -28.765625 6.5 -28.765625 L 13.109375 -28.765625 L 13.109375 -41.890625 L 18.53125 -43.15625 L 18.53125 0 Z M 9.78125 -5.40625 L 13.109375 -5.40625 L 13.109375 -23.359375 L 9.78125 -23.359375 C 9.238281 -23.359375 8.753906 -23.164062 8.328125 -22.78125 C 7.910156 -22.394531 7.703125 -21.894531 7.703125 -21.28125 L 7.703125 -7.484375 C 7.703125 -6.941406 7.910156 -6.457031 8.328125 -6.03125 C 8.753906 -5.613281 9.238281 -5.40625 9.78125 -5.40625 Z M 9.78125 -5.40625 "/>
      </g>
    </g>
  </g>
  <g fill="#000000" fill-opacity="1">
    <g transform="translate(244.378954, 319.940984)">
      <g>
        <path d="M 6.5 0 C 5.351562 0 4.363281 -0.410156 3.53125 -1.234375 C 2.707031 -2.054688 2.296875 -3.046875 2.296875 -4.203125 L 2.296875 -24.625 C 2.296875 -25.769531 2.707031 -26.742188 3.53125 -27.546875 C 4.363281 -28.359375 5.351562 -28.765625 6.5 -28.765625 L 14.328125 -28.765625 C 15.515625 -28.765625 16.507812 -28.359375 17.3125 -27.546875 C 18.125 -26.742188 18.53125 -25.769531 18.53125 -24.625 L 18.53125 -15.875 C 18.53125 -14.726562 18.125 -13.738281 17.3125 -12.90625 C 16.507812 -12.082031 15.515625 -11.671875 14.328125 -11.671875 L 7.703125 -11.671875 L 7.703125 -7.484375 C 7.703125 -6.898438 7.90625 -6.40625 8.3125 -6 C 8.71875 -5.601562 9.226562 -5.40625 9.84375 -5.40625 L 17.3125 -5.40625 L 18.53125 0 Z M 7.703125 -17.09375 L 11.046875 -17.09375 C 11.617188 -17.09375 12.101562 -17.289062 12.5 -17.6875 C 12.90625 -18.09375 13.109375 -18.582031 13.109375 -19.15625 L 13.109375 -21.28125 C 13.109375 -21.863281 12.90625 -22.351562 12.5 -22.75 C 12.101562 -23.15625 11.617188 -23.359375 11.046875 -23.359375 L 9.84375 -23.359375 C 9.226562 -23.359375 8.71875 -23.15625 8.3125 -22.75 C 7.90625 -22.351562 7.703125 -21.863281 7.703125 -21.28125 Z M 7.703125 -17.09375 "/>
      </g>
    </g>
  </g>
  <g fill="#000000" fill-opacity="1">
    <g transform="translate(265.199623, 319.940984)">
      <g>
        <path d="M 6.4375 0 C 5.289062 0 4.3125 -0.410156 3.5 -1.234375 C 2.695312 -2.054688 2.296875 -3.046875 2.296875 -4.203125 L 2.296875 -8.96875 L 7.65625 -8.96875 L 7.65625 -7.484375 C 7.65625 -6.898438 7.863281 -6.40625 8.28125 -6 C 8.707031 -5.601562 9.207031 -5.40625 9.78125 -5.40625 L 10.984375 -5.40625 C 11.554688 -5.40625 12.046875 -5.601562 12.453125 -6 C 12.859375 -6.40625 13.0625 -6.898438 13.0625 -7.484375 L 13.0625 -9.609375 C 13.0625 -10.179688 12.859375 -10.664062 12.453125 -11.0625 C 12.046875 -11.46875 11.554688 -11.671875 10.984375 -11.671875 L 6.4375 -11.671875 C 5.289062 -11.671875 4.3125 -12.082031 3.5 -12.90625 C 2.695312 -13.738281 2.296875 -14.726562 2.296875 -15.875 L 2.296875 -24.5625 C 2.296875 -25.71875 2.695312 -26.707031 3.5 -27.53125 C 4.3125 -28.351562 5.289062 -28.765625 6.4375 -28.765625 L 14.328125 -28.765625 C 15.472656 -28.765625 16.445312 -28.351562 17.25 -27.53125 C 18.0625 -26.707031 18.46875 -25.71875 18.46875 -24.5625 L 18.46875 -19.796875 L 13.0625 -19.796875 L 13.0625 -21.28125 C 13.0625 -21.863281 12.859375 -22.351562 12.453125 -22.75 C 12.046875 -23.15625 11.554688 -23.359375 10.984375 -23.359375 L 9.78125 -23.359375 C 9.207031 -23.359375 8.707031 -23.15625 8.28125 -22.75 C 7.863281 -22.351562 7.65625 -21.863281 7.65625 -21.28125 L 7.65625 -19.15625 C 7.65625 -18.582031 7.863281 -18.09375 8.28125 -17.6875 C 8.707031 -17.289062 9.207031 -17.09375 9.78125 -17.09375 L 14.328125 -17.09375 C 15.472656 -17.09375 16.445312 -16.675781 17.25 -15.84375 C 18.0625 -15.019531 18.46875 -14.035156 18.46875 -12.890625 L 18.46875 -3.96875 C 18.425781 -2.894531 18.003906 -1.960938 17.203125 -1.171875 C 16.398438 -0.390625 15.441406 0 14.328125 0 Z M 6.4375 0 "/>
      </g>
    </g>
  </g>
</svg>