<svg xmlns="http://www.w3.org/2000/svg" xmlns:xlink="http://www.w3.org/1999/xlink" width="500" viewBox="0 0 375 374.999991" height="500" preserveAspectRatio="xMidYMid meet" version="1.0"><defs><g/><clipPath id="ba6e3a75db"><path d="M 183.019531 150.273438 L 208 150.273438 L 208 210 L 183.019531 210 Z M 183.019531 150.273438 " clip-rule="nonzero"/></clipPath></defs><g fill="#4169e1" fill-opacity="1"><g transform="translate(89.022076, 319.943065)"><g><path d="M 15.765625 2.8125 L 14.609375 0 L 7.703125 0 C 6.554688 0 5.578125 -0.398438 4.765625 -1.203125 C 3.960938 -2.015625 3.5625 -2.992188 3.5625 -4.140625 L 3.5625 -36.25 C 3.5625 -37.351562 3.960938 -38.296875 4.765625 -39.078125 C 5.578125 -39.867188 6.554688 -40.265625 7.703125 -40.265625 L 20.828125 -40.265625 C 21.972656 -40.265625 22.945312 -39.867188 23.75 -39.078125 C 24.5625 -38.296875 24.96875 -37.351562 24.96875 -36.25 L 24.96875 -4.140625 C 24.96875 -2.992188 24.5625 -2.015625 23.75 -1.203125 C 22.945312 -0.398438 21.972656 0 20.828125 0 L 19.96875 0 L 21.109375 2.8125 Z M 11.046875 -5.34375 L 12.421875 -5.34375 L 11.109375 -8.796875 L 16.515625 -8.796875 L 17.828125 -5.34375 C 18.296875 -5.425781 18.703125 -5.664062 19.046875 -6.0625 C 19.390625 -6.46875 19.5625 -6.921875 19.5625 -7.421875 L 19.5625 -32.96875 C 19.5625 -33.5 19.367188 -33.96875 18.984375 -34.375 C 18.597656 -34.78125 18.097656 -34.984375 17.484375 -34.984375 L 11.046875 -34.984375 C 10.429688 -34.984375 9.929688 -34.78125 9.546875 -34.375 C 9.160156 -33.96875 8.96875 -33.5 8.96875 -32.96875 L 8.96875 -7.421875 C 8.96875 -6.847656 9.160156 -6.359375 9.546875 -5.953125 C 9.929688 -5.546875 10.429688 -5.34375 11.046875 -5.34375 Z M 11.046875 -5.34375 "/></g></g></g><g fill="#4169e1" fill-opacity="1"><g transform="translate(117.549849, 319.943065)"><g><path d="M 11.328125 0 L 11.328125 -34.921875 L 3.34375 -34.921875 L 3.34375 -40.265625 L 24.6875 -40.265625 L 24.6875 -34.921875 L 16.6875 -34.921875 L 16.6875 0 Z M 11.328125 0 "/></g></g></g><g fill="#4169e1" fill-opacity="1"><g transform="translate(145.559983, 319.943065)"><g><path d="M 3.453125 0 L 3.453125 -40.265625 L 20.71875 -40.265625 C 21.820312 -40.265625 22.773438 -39.863281 23.578125 -39.0625 C 24.390625 -38.257812 24.796875 -37.28125 24.796875 -36.125 L 24.796875 -23.765625 C 24.796875 -22.609375 24.390625 -21.628906 23.578125 -20.828125 C 22.773438 -20.023438 21.820312 -19.625 20.71875 -19.625 L 19.5 -19.625 L 24.796875 0 L 19.5 0 L 14.15625 -19.625 L 8.796875 -19.625 L 8.796875 0 Z M 8.796875 -24.96875 L 17.4375 -24.96875 C 17.96875 -24.96875 18.441406 -25.164062 18.859375 -25.5625 C 19.285156 -25.96875 19.5 -26.460938 19.5 -27.046875 L 19.5 -32.84375 C 19.5 -33.425781 19.285156 -33.914062 18.859375 -34.3125 C 18.441406 -34.71875 17.96875 -34.921875 17.4375 -34.921875 L 8.796875 -34.921875 Z M 8.796875 -24.96875 "/></g></g></g><g fill="#000000" fill-opacity="1"><g transform="translate(173.807227, 319.943065)"><g><path d="M 7.703125 0 C 6.628906 0 5.671875 -0.398438 4.828125 -1.203125 C 3.984375 -2.015625 3.5625 -2.992188 3.5625 -4.140625 L 3.5625 -36.125 C 3.5625 -37.238281 3.984375 -38.207031 4.828125 -39.03125 C 5.671875 -39.851562 6.628906 -40.265625 7.703125 -40.265625 L 20.765625 -40.265625 C 21.953125 -40.265625 22.9375 -39.851562 23.71875 -39.03125 C 24.507812 -38.207031 24.90625 -37.238281 24.90625 -36.125 L 24.90625 -28.65625 L 19.5625 -27.4375 L 19.5625 -32.84375 C 19.5625 -33.382812 19.378906 -33.863281 19.015625 -34.28125 C 18.648438 -34.707031 18.160156 -34.921875 17.546875 -34.921875 L 10.984375 -34.921875 C 10.453125 -34.921875 9.972656 -34.707031 9.546875 -34.28125 C 9.128906 -33.863281 8.921875 -33.382812 8.921875 -32.84375 L 8.921875 -7.421875 C 8.921875 -6.804688 9.128906 -6.304688 9.546875 -5.921875 C 9.972656 -5.535156 10.453125 -5.34375 10.984375 -5.34375 L 17.546875 -5.34375 C 18.160156 -5.34375 18.648438 -5.535156 19.015625 -5.921875 C 19.378906 -6.304688 19.5625 -6.804688 19.5625 -7.421875 L 19.5625 -11.625 L 24.90625 -12.890625 L 24.90625 -4.140625 C 24.90625 -2.992188 24.507812 -2.015625 23.71875 -1.203125 C 22.9375 -0.398438 21.953125 0 20.765625 0 Z M 7.703125 0 "/></g></g></g><g fill="#000000" fill-opacity="1"><g transform="translate(202.277481, 319.943065)"><g><path d="M 6.96875 0 C 5.769531 0 4.769531 -0.410156 3.96875 -1.234375 C 3.164062 -2.054688 2.765625 -3.046875 2.765625 -4.203125 L 2.765625 -24.5625 C 2.765625 -25.71875 3.164062 -26.707031 3.96875 -27.53125 C 4.769531 -28.351562 5.769531 -28.765625 6.96875 -28.765625 L 14.78125 -28.765625 C 15.9375 -28.765625 16.914062 -28.351562 17.71875 -27.53125 C 18.519531 -26.707031 18.921875 -25.71875 18.921875 -24.5625 L 18.921875 -4.203125 C 18.921875 -3.046875 18.519531 -2.054688 17.71875 -1.234375 C 16.914062 -0.410156 15.9375 0 14.78125 0 Z M 10.234375 -5.40625 L 11.453125 -5.40625 C 12.023438 -5.40625 12.519531 -5.601562 12.9375 -6 C 13.363281 -6.40625 13.578125 -6.898438 13.578125 -7.484375 L 13.578125 -21.28125 C 13.578125 -21.863281 13.363281 -22.351562 12.9375 -22.75 C 12.519531 -23.15625 12.023438 -23.359375 11.453125 -23.359375 L 10.234375 -23.359375 C 9.660156 -23.359375 9.171875 -23.15625 8.765625 -22.75 C 8.367188 -22.351562 8.171875 -21.863281 8.171875 -21.28125 L 8.171875 -7.484375 C 8.171875 -6.898438 8.367188 -6.40625 8.765625 -6 C 9.171875 -5.601562 9.660156 -5.40625 10.234375 -5.40625 Z M 10.234375 -5.40625 "/></g></g></g><g fill="#000000" fill-opacity="1"><g transform="translate(223.558284, 319.943065)"><g><path d="M 6.5 0 C 5.3125 0 4.3125 -0.398438 3.5 -1.203125 C 2.695312 -2.015625 2.296875 -3.015625 2.296875 -4.203125 L 2.296875 -24.5625 C 2.296875 -25.75 2.695312 -26.742188 3.5 -27.546875 C 4.3125 -28.359375 5.3125 -28.765625 6.5 -28.765625 L 13.109375 -28.765625 L 13.109375 -41.890625 L 18.53125 -43.15625 L 18.53125 0 Z M 9.78125 -5.40625 L 13.109375 -5.40625 L 13.109375 -23.359375 L 9.78125 -23.359375 C 9.238281 -23.359375 8.753906 -23.164062 8.328125 -22.78125 C 7.910156 -22.394531 7.703125 -21.894531 7.703125 -21.28125 L 7.703125 -7.484375 C 7.703125 -6.941406 7.910156 -6.457031 8.328125 -6.03125 C 8.753906 -5.613281 9.238281 -5.40625 9.78125 -5.40625 Z M 9.78125 -5.40625 "/></g></g></g><g fill="#000000" fill-opacity="1"><g transform="translate(244.378954, 319.943065)"><g><path d="M 6.5 0 C 5.351562 0 4.363281 -0.410156 3.53125 -1.234375 C 2.707031 -2.054688 2.296875 -3.046875 2.296875 -4.203125 L 2.296875 -24.625 C 2.296875 -25.769531 2.707031 -26.742188 3.53125 -27.546875 C 4.363281 -28.359375 5.351562 -28.765625 6.5 -28.765625 L 14.328125 -28.765625 C 15.515625 -28.765625 16.507812 -28.359375 17.3125 -27.546875 C 18.125 -26.742188 18.53125 -25.769531 18.53125 -24.625 L 18.53125 -15.875 C 18.53125 -14.726562 18.125 -13.738281 17.3125 -12.90625 C 16.507812 -12.082031 15.515625 -11.671875 14.328125 -11.671875 L 7.703125 -11.671875 L 7.703125 -7.484375 C 7.703125 -6.898438 7.90625 -6.40625 8.3125 -6 C 8.71875 -5.601562 9.226562 -5.40625 9.84375 -5.40625 L 17.3125 -5.40625 L 18.53125 0 Z M 7.703125 -17.09375 L 11.046875 -17.09375 C 11.617188 -17.09375 12.101562 -17.289062 12.5 -17.6875 C 12.90625 -18.09375 13.109375 -18.582031 13.109375 -19.15625 L 13.109375 -21.28125 C 13.109375 -21.863281 12.90625 -22.351562 12.5 -22.75 C 12.101562 -23.15625 11.617188 -23.359375 11.046875 -23.359375 L 9.84375 -23.359375 C 9.226562 -23.359375 8.71875 -23.15625 8.3125 -22.75 C 7.90625 -22.351562 7.703125 -21.863281 7.703125 -21.28125 Z M 7.703125 -17.09375 "/></g></g></g><g fill="#000000" fill-opacity="1"><g transform="translate(265.199623, 319.943065)"><g><path d="M 6.4375 0 C 5.289062 0 4.3125 -0.410156 3.5 -1.234375 C 2.695312 -2.054688 2.296875 -3.046875 2.296875 -4.203125 L 2.296875 -8.96875 L 7.65625 -8.96875 L 7.65625 -7.484375 C 7.65625 -6.898438 7.863281 -6.40625 8.28125 -6 C 8.707031 -5.601562 9.207031 -5.40625 9.78125 -5.40625 L 10.984375 -5.40625 C 11.554688 -5.40625 12.046875 -5.601562 12.453125 -6 C 12.859375 -6.40625 13.0625 -6.898438 13.0625 -7.484375 L 13.0625 -9.609375 C 13.0625 -10.179688 12.859375 -10.664062 12.453125 -11.0625 C 12.046875 -11.46875 11.554688 -11.671875 10.984375 -11.671875 L 6.4375 -11.671875 C 5.289062 -11.671875 4.3125 -12.082031 3.5 -12.90625 C 2.695312 -13.738281 2.296875 -14.726562 2.296875 -15.875 L 2.296875 -24.5625 C 2.296875 -25.71875 2.695312 -26.707031 3.5 -27.53125 C 4.3125 -28.351562 5.289062 -28.765625 6.4375 -28.765625 L 14.328125 -28.765625 C 15.472656 -28.765625 16.445312 -28.351562 17.25 -27.53125 C 18.0625 -26.707031 18.46875 -25.71875 18.46875 -24.5625 L 18.46875 -19.796875 L 13.0625 -19.796875 L 13.0625 -21.28125 C 13.0625 -21.863281 12.859375 -22.351562 12.453125 -22.75 C 12.046875 -23.15625 11.554688 -23.359375 10.984375 -23.359375 L 9.78125 -23.359375 C 9.207031 -23.359375 8.707031 -23.15625 8.28125 -22.75 C 7.863281 -22.351562 7.65625 -21.863281 7.65625 -21.28125 L 7.65625 -19.15625 C 7.65625 -18.582031 7.863281 -18.09375 8.28125 -17.6875 C 8.707031 -17.289062 9.207031 -17.09375 9.78125 -17.09375 L 14.328125 -17.09375 C 15.472656 -17.09375 16.445312 -16.675781 17.25 -15.84375 C 18.0625 -15.019531 18.46875 -14.035156 18.46875 -12.890625 L 18.46875 -3.96875 C 18.425781 -2.894531 18.003906 -1.960938 17.203125 -1.171875 C 16.398438 -0.390625 15.441406 0 14.328125 0 Z M 6.4375 0 "/></g></g></g><path fill="#000000" d="M 85.117188 50.683594 L 142.160156 50.683594 L 142.160156 107.722656 L 85.117188 107.722656 Z M 158.457031 50.683594 L 174.753906 50.683594 L 174.753906 58.832031 L 166.605469 58.832031 L 166.605469 75.128906 L 174.753906 75.128906 L 174.753906 66.980469 L 191.050781 66.980469 L 191.050781 83.277344 L 174.753906 83.277344 L 174.753906 91.425781 L 191.050781 91.425781 L 191.050781 107.722656 L 182.902344 107.722656 L 182.902344 99.574219 L 174.753906 99.574219 L 174.753906 107.722656 L 166.605469 107.722656 L 166.605469 99.574219 L 158.457031 99.574219 L 158.457031 91.425781 L 150.308594 91.425781 L 150.308594 83.277344 L 158.457031 83.277344 L 158.457031 66.980469 L 150.308594 66.980469 L 150.308594 58.832031 L 158.457031 58.832031 Z M 191.050781 50.683594 L 215.496094 50.683594 L 215.496094 75.128906 L 207.347656 75.128906 L 207.347656 66.980469 L 199.199219 66.980469 L 199.199219 58.832031 L 191.050781 58.832031 Z M 231.792969 50.683594 L 288.835938 50.683594 L 288.835938 107.722656 L 231.792969 107.722656 Z M 93.265625 58.832031 L 93.265625 99.574219 L 134.011719 99.574219 L 134.011719 58.832031 Z M 239.941406 58.832031 L 239.941406 99.574219 L 280.6875 99.574219 L 280.6875 58.832031 Z M 101.414062 66.980469 L 125.859375 66.980469 L 125.859375 91.425781 L 101.414062 91.425781 Z M 248.089844 66.980469 L 272.535156 66.980469 L 272.535156 91.425781 L 248.089844 91.425781 Z M 199.199219 75.128906 L 207.347656 75.128906 L 207.347656 83.277344 L 199.199219 83.277344 Z M 207.347656 83.277344 L 223.644531 83.277344 L 223.644531 107.722656 L 215.496094 107.722656 L 215.496094 99.574219 L 207.347656 99.574219 Z M 150.308594 99.574219 L 158.457031 99.574219 L 158.457031 107.722656 L 150.308594 107.722656 Z M 199.199219 99.574219 L 207.347656 99.574219 L 207.347656 107.722656 L 199.199219 107.722656 Z M 158.457031 107.722656 L 166.605469 107.722656 L 166.605469 115.871094 L 182.902344 115.871094 L 182.902344 124.019531 L 166.605469 124.019531 L 166.605469 132.167969 L 158.457031 132.167969 Z M 191.050781 107.722656 L 199.199219 107.722656 L 199.199219 140.316406 L 223.644531 140.316406 L 223.644531 132.167969 L 231.792969 132.167969 L 231.792969 124.019531 L 239.941406 124.019531 L 239.941406 132.167969 L 256.238281 132.167969 L 256.238281 140.316406 L 248.089844 140.316406 L 248.089844 156.617188 L 239.941406 156.617188 L 239.941406 164.765625 L 248.089844 164.765625 L 248.089844 172.914062 L 239.941406 172.914062 L 239.941406 181.0625 L 248.089844 181.0625 L 248.089844 172.914062 L 256.238281 172.914062 L 256.238281 181.0625 L 264.386719 181.0625 L 264.386719 221.804688 L 272.535156 221.804688 L 272.535156 229.953125 L 256.238281 229.953125 L 256.238281 238.101562 L 264.386719 238.101562 L 264.386719 246.25 L 248.089844 246.25 L 248.089844 229.953125 L 239.941406 229.953125 L 239.941406 221.804688 L 223.644531 221.804688 L 223.644531 229.953125 L 215.496094 229.953125 L 215.496094 205.507812 L 207.347656 205.507812 L 207.347656 229.953125 L 199.199219 229.953125 L 199.199219 213.65625 L 182.902344 213.65625 L 182.902344 205.507812 L 158.457031 205.507812 L 158.457031 197.359375 L 150.308594 197.359375 L 150.308594 189.210938 L 158.457031 189.210938 L 158.457031 181.0625 L 142.160156 181.0625 L 142.160156 172.914062 L 166.605469 172.914062 L 166.605469 197.359375 L 174.753906 197.359375 L 174.753906 189.210938 L 182.902344 189.210938 L 182.902344 181.0625 L 191.050781 181.0625 L 191.050781 189.210938 L 199.199219 189.210938 L 199.199219 197.359375 L 191.050781 197.359375 L 191.050781 205.507812 L 199.199219 205.507812 L 199.199219 197.359375 L 207.347656 197.359375 L 207.347656 189.210938 L 215.496094 189.210938 L 215.496094 181.0625 L 207.347656 181.0625 L 207.347656 172.914062 L 215.496094 172.914062 L 215.496094 148.46875 L 207.347656 148.46875 L 207.347656 156.617188 L 199.199219 156.617188 L 199.199219 148.46875 L 191.050781 148.46875 Z M 85.117188 115.871094 L 93.265625 115.871094 L 93.265625 124.019531 L 101.414062 124.019531 L 101.414062 132.167969 L 93.265625 132.167969 L 93.265625 140.316406 L 85.117188 140.316406 Z M 101.414062 115.871094 L 109.5625 115.871094 L 109.5625 124.019531 L 101.414062 124.019531 Z M 117.710938 115.871094 L 125.859375 115.871094 L 125.859375 124.019531 L 117.710938 124.019531 Z M 134.011719 115.871094 L 142.160156 115.871094 L 142.160156 124.019531 L 134.011719 124.019531 Z M 248.089844 115.871094 L 256.238281 115.871094 L 256.238281 124.019531 L 248.089844 124.019531 Z M 272.535156 115.871094 L 280.6875 115.871094 L 280.6875 124.019531 L 272.535156 124.019531 Z M 109.5625 124.019531 L 117.710938 124.019531 L 117.710938 132.167969 L 109.5625 132.167969 Z M 125.859375 124.019531 L 134.011719 124.019531 L 134.011719 132.167969 L 125.859375 132.167969 Z M 142.160156 124.019531 L 150.308594 124.019531 L 150.308594 132.167969 L 142.160156 132.167969 Z M 215.496094 124.019531 L 223.644531 124.019531 L 223.644531 132.167969 L 215.496094 132.167969 Z M 280.6875 124.019531 L 288.835938 124.019531 L 288.835938 140.316406 L 280.6875 140.316406 L 280.6875 148.46875 L 288.835938 148.46875 L 288.835938 172.914062 L 280.6875 172.914062 L 280.6875 181.0625 L 272.535156 181.0625 L 272.535156 172.914062 L 264.386719 172.914062 L 264.386719 164.765625 L 280.6875 164.765625 L 280.6875 156.617188 L 272.535156 156.617188 L 272.535156 140.316406 L 264.386719 140.316406 L 264.386719 132.167969 L 280.6875 132.167969 Z M 117.710938 132.167969 L 125.859375 132.167969 L 125.859375 140.316406 L 134.011719 140.316406 L 134.011719 148.46875 L 142.160156 148.46875 L 142.160156 156.617188 L 125.859375 156.617188 L 125.859375 148.46875 L 117.710938 148.46875 Z M 134.011719 132.167969 L 142.160156 132.167969 L 142.160156 140.316406 L 134.011719 140.316406 Z M 174.753906 132.167969 L 182.902344 132.167969 L 182.902344 140.316406 L 174.753906 140.316406 Z M 101.414062 140.316406 L 109.5625 140.316406 L 109.5625 148.46875 L 117.710938 148.46875 L 117.710938 156.617188 L 109.5625 156.617188 L 109.5625 181.0625 L 93.265625 181.0625 L 93.265625 172.914062 L 101.414062 172.914062 L 101.414062 164.765625 L 93.265625 164.765625 L 93.265625 156.617188 L 85.117188 156.617188 L 85.117188 148.46875 L 101.414062 148.46875 Z M 142.160156 140.316406 L 158.457031 140.316406 L 158.457031 156.617188 L 166.605469 156.617188 L 166.605469 140.316406 L 174.753906 140.316406 L 174.753906 148.46875 L 182.902344 148.46875 L 182.902344 164.765625 L 150.308594 164.765625 L 150.308594 148.46875 L 142.160156 148.46875 Z M 231.792969 140.316406 L 231.792969 148.46875 L 239.941406 148.46875 L 239.941406 140.316406 Z M 256.238281 148.46875 L 264.386719 148.46875 L 264.386719 164.765625 L 256.238281 164.765625 Z M 223.644531 156.617188 L 223.644531 172.914062 L 231.792969 172.914062 L 231.792969 156.617188 Z M 85.117188 164.765625 L 93.265625 164.765625 L 93.265625 172.914062 L 85.117188 172.914062 Z M 134.011719 164.765625 L 142.160156 164.765625 L 142.160156 172.914062 L 134.011719 172.914062 Z M 191.050781 164.765625 L 199.199219 164.765625 L 199.199219 172.914062 L 191.050781 172.914062 Z M 117.710938 172.914062 L 134.011719 172.914062 L 134.011719 181.0625 L 142.160156 181.0625 L 142.160156 189.210938 L 109.5625 189.210938 L 109.5625 181.0625 L 117.710938 181.0625 Z M 174.753906 172.914062 L 182.902344 172.914062 L 182.902344 181.0625 L 174.753906 181.0625 Z M 85.117188 181.0625 L 93.265625 181.0625 L 93.265625 189.210938 L 85.117188 189.210938 Z M 223.644531 189.210938 L 223.644531 213.65625 L 248.089844 213.65625 L 248.089844 189.210938 Z M 272.535156 189.210938 L 288.835938 189.210938 L 288.835938 205.507812 L 280.6875 205.507812 L 280.6875 213.65625 L 288.835938 213.65625 L 288.835938 221.804688 L 272.535156 221.804688 Z M 85.117188 197.359375 L 142.160156 197.359375 L 142.160156 254.398438 L 85.117188 254.398438 Z M 231.792969 197.359375 L 239.941406 197.359375 L 239.941406 205.507812 L 231.792969 205.507812 Z M 93.265625 205.507812 L 93.265625 246.25 L 134.011719 246.25 L 134.011719 205.507812 Z M 101.414062 213.65625 L 125.859375 213.65625 L 125.859375 238.101562 L 101.414062 238.101562 Z M 150.308594 213.65625 L 182.902344 213.65625 L 182.902344 229.953125 L 158.457031 229.953125 L 158.457031 221.804688 L 150.308594 221.804688 Z M 150.308594 229.953125 L 158.457031 229.953125 L 158.457031 238.101562 L 150.308594 238.101562 Z M 191.050781 229.953125 L 199.199219 229.953125 L 199.199219 238.101562 L 191.050781 238.101562 Z M 207.347656 229.953125 L 215.496094 229.953125 L 215.496094 238.101562 L 231.792969 238.101562 L 231.792969 254.398438 L 207.347656 254.398438 Z M 280.6875 229.953125 L 288.835938 229.953125 L 288.835938 238.101562 L 280.6875 238.101562 Z M 174.753906 238.101562 L 182.902344 238.101562 L 182.902344 246.25 L 174.753906 246.25 Z M 272.535156 238.101562 L 280.6875 238.101562 L 280.6875 246.25 L 288.835938 246.25 L 288.835938 254.398438 L 272.535156 254.398438 Z M 150.308594 246.25 L 174.753906 246.25 L 174.753906 254.398438 L 150.308594 254.398438 Z M 182.902344 246.25 L 191.050781 246.25 L 191.050781 254.398438 L 182.902344 254.398438 Z M 239.941406 246.25 L 248.089844 246.25 L 248.089844 254.398438 L 239.941406 254.398438 Z M 239.941406 246.25 " fill-opacity="1" fill-rule="nonzero"/><g clip-path="url(#ba6e3a75db)"><path fill="#000000" d="M 182.972656 196.574219 C 182.96875 195.378906 183.132812 194.203125 183.46875 193.054688 C 183.804688 191.90625 184.292969 190.828125 184.941406 189.820312 C 185.589844 188.8125 186.363281 187.917969 187.269531 187.136719 C 188.175781 186.351562 189.175781 185.714844 190.265625 185.21875 L 190.265625 155.949219 C 190.265625 155.660156 190.367188 155.414062 190.570312 155.210938 L 194.734375 151.046875 C 194.832031 150.949219 194.945312 150.871094 195.074219 150.820312 C 195.203125 150.765625 195.335938 150.738281 195.472656 150.738281 C 195.609375 150.738281 195.742188 150.765625 195.871094 150.820312 C 196 150.871094 196.113281 150.949219 196.210938 151.046875 L 200.375 155.210938 C 200.578125 155.414062 200.679688 155.660156 200.679688 155.949219 L 200.679688 160.117188 C 200.679688 160.402344 200.578125 160.648438 200.375 160.851562 L 197.988281 163.242188 L 200.375 165.628906 C 200.472656 165.726562 200.550781 165.839844 200.601562 165.96875 C 200.65625 166.09375 200.679688 166.226562 200.679688 166.367188 C 200.679688 166.503906 200.65625 166.636719 200.601562 166.765625 C 200.550781 166.890625 200.472656 167.003906 200.375 167.101562 L 197.988281 169.492188 L 200.375 171.878906 C 200.472656 171.976562 200.550781 172.089844 200.601562 172.21875 C 200.65625 172.34375 200.679688 172.476562 200.679688 172.617188 C 200.679688 172.753906 200.65625 172.886719 200.601562 173.015625 C 200.550781 173.140625 200.472656 173.253906 200.375 173.351562 L 197.988281 175.742188 L 200.375 178.128906 C 200.578125 178.332031 200.679688 178.578125 200.679688 178.867188 L 200.679688 185.21875 C 201.359375 185.53125 202.003906 185.898438 202.613281 186.324219 C 203.226562 186.75 203.792969 187.230469 204.320312 187.757812 C 204.847656 188.285156 205.320312 188.855469 205.746094 189.46875 C 206.167969 190.082031 206.535156 190.726562 206.84375 191.40625 C 207.152344 192.082031 207.398438 192.785156 207.582031 193.503906 C 207.765625 194.226562 207.882812 194.960938 207.933594 195.703125 C 207.988281 196.449219 207.972656 197.191406 207.894531 197.929688 C 207.8125 198.671875 207.667969 199.398438 207.457031 200.113281 C 207.246094 200.828125 206.972656 201.519531 206.636719 202.1875 C 206.304688 202.851562 205.910156 203.484375 205.464844 204.078125 C 205.015625 204.675781 204.519531 205.226562 203.976562 205.734375 C 203.429688 206.242188 202.84375 206.695312 202.214844 207.097656 C 201.585938 207.5 200.929688 207.84375 200.242188 208.128906 C 199.550781 208.414062 198.84375 208.632812 198.113281 208.792969 C 197.386719 208.949219 196.648438 209.042969 195.90625 209.066406 C 195.160156 209.09375 194.417969 209.054688 193.679688 208.945312 C 192.945312 208.839844 192.222656 208.667969 191.515625 208.433594 C 190.808594 208.195312 190.125 207.902344 189.472656 207.542969 C 188.820312 207.183594 188.203125 206.773438 187.621094 206.304688 C 187.042969 205.835938 186.507812 205.320312 186.019531 204.757812 C 185.53125 204.195312 185.097656 203.589844 184.71875 202.949219 C 184.339844 202.308594 184.019531 201.640625 183.757812 200.941406 C 183.5 200.242188 183.300781 199.527344 183.171875 198.792969 C 183.039062 198.058594 182.972656 197.320312 182.972656 196.574219 Z M 198.597656 201.78125 C 198.597656 201.367188 198.519531 200.96875 198.359375 200.585938 C 198.203125 200.203125 197.976562 199.867188 197.683594 199.574219 C 197.390625 199.28125 197.050781 199.054688 196.667969 198.894531 C 196.285156 198.738281 195.886719 198.65625 195.472656 198.65625 C 195.058594 198.65625 194.660156 198.738281 194.277344 198.894531 C 193.894531 199.054688 193.554688 199.28125 193.261719 199.574219 C 192.96875 199.867188 192.746094 200.203125 192.585938 200.585938 C 192.425781 200.96875 192.347656 201.367188 192.347656 201.78125 C 192.347656 202.199219 192.425781 202.597656 192.585938 202.980469 C 192.746094 203.363281 192.96875 203.699219 193.261719 203.992188 C 193.554688 204.285156 193.894531 204.511719 194.277344 204.671875 C 194.660156 204.828125 195.058594 204.90625 195.472656 204.90625 C 195.886719 204.90625 196.285156 204.828125 196.667969 204.667969 C 197.050781 204.511719 197.386719 204.285156 197.679688 203.992188 C 197.972656 203.699219 198.199219 203.359375 198.359375 202.976562 C 198.519531 202.597656 198.597656 202.199219 198.597656 201.78125 Z M 198.597656 201.78125 " fill-opacity="1" fill-rule="nonzero"/></g></svg>