<svg xmlns="http://www.w3.org/2000/svg" xmlns:xlink="http://www.w3.org/1999/xlink" width="500" viewBox="0 0 375 374.999991" height="500" preserveAspectRatio="xMidYMid meet" version="1.0"><defs><g/><clipPath id="b03c271883"><path d="M 183.332031 150.269531 L 208.90625 150.269531 L 208.90625 209.988281 L 183.332031 209.988281 Z M 183.332031 150.269531 " clip-rule="nonzero"/></clipPath></defs><path fill="#ffffff" d="M 85.078125 50.644531 L 142.074219 50.644531 L 142.074219 107.640625 L 85.078125 107.640625 Z M 158.359375 50.644531 L 174.644531 50.644531 L 174.644531 58.785156 L 166.5 58.785156 L 166.5 75.070312 L 174.644531 75.070312 L 174.644531 66.929688 L 190.929688 66.929688 L 190.929688 83.214844 L 174.644531 83.214844 L 174.644531 91.355469 L 190.929688 91.355469 L 190.929688 107.640625 L 182.785156 107.640625 L 182.785156 99.496094 L 174.644531 99.496094 L 174.644531 107.640625 L 166.5 107.640625 L 166.5 99.496094 L 158.359375 99.496094 L 158.359375 91.355469 L 150.21875 91.355469 L 150.21875 83.214844 L 158.359375 83.214844 L 158.359375 66.929688 L 150.21875 66.929688 L 150.21875 58.785156 L 158.359375 58.785156 Z M 190.929688 50.644531 L 215.355469 50.644531 L 215.355469 75.070312 L 207.210938 75.070312 L 207.210938 66.929688 L 199.070312 66.929688 L 199.070312 58.785156 L 190.929688 58.785156 Z M 231.640625 50.644531 L 288.636719 50.644531 L 288.636719 107.640625 L 231.640625 107.640625 Z M 93.222656 58.785156 L 93.222656 99.496094 L 133.933594 99.496094 L 133.933594 58.785156 Z M 239.78125 58.785156 L 239.78125 99.496094 L 280.492188 99.496094 L 280.492188 58.785156 Z M 101.363281 66.929688 L 125.789062 66.929688 L 125.789062 91.355469 L 101.363281 91.355469 Z M 247.925781 66.929688 L 272.351562 66.929688 L 272.351562 91.355469 L 247.925781 91.355469 Z M 199.070312 75.070312 L 207.210938 75.070312 L 207.210938 83.214844 L 199.070312 83.214844 Z M 207.210938 83.214844 L 223.496094 83.214844 L 223.496094 107.640625 L 215.355469 107.640625 L 215.355469 99.496094 L 207.210938 99.496094 Z M 150.21875 99.496094 L 158.359375 99.496094 L 158.359375 107.640625 L 150.21875 107.640625 Z M 199.070312 99.496094 L 207.210938 99.496094 L 207.210938 107.640625 L 199.070312 107.640625 Z M 158.359375 107.640625 L 166.5 107.640625 L 166.5 115.78125 L 182.785156 115.78125 L 182.785156 123.925781 L 166.5 123.925781 L 166.5 132.066406 L 158.359375 132.066406 Z M 190.929688 107.640625 L 199.070312 107.640625 L 199.070312 140.210938 L 223.496094 140.210938 L 223.496094 132.066406 L 231.640625 132.066406 L 231.640625 123.925781 L 239.78125 123.925781 L 239.78125 132.066406 L 256.066406 132.066406 L 256.066406 140.210938 L 247.925781 140.210938 L 247.925781 156.492188 L 239.78125 156.492188 L 239.78125 164.636719 L 247.925781 164.636719 L 247.925781 172.777344 L 239.78125 172.777344 L 239.78125 180.921875 L 247.925781 180.921875 L 247.925781 172.777344 L 256.066406 172.777344 L 256.066406 180.921875 L 264.207031 180.921875 L 264.207031 221.632812 L 272.351562 221.632812 L 272.351562 229.773438 L 256.066406 229.773438 L 256.066406 237.914062 L 264.207031 237.914062 L 264.207031 246.058594 L 247.925781 246.058594 L 247.925781 229.773438 L 239.78125 229.773438 L 239.78125 221.632812 L 223.496094 221.632812 L 223.496094 229.773438 L 215.355469 229.773438 L 215.355469 205.347656 L 207.210938 205.347656 L 207.210938 229.773438 L 199.070312 229.773438 L 199.070312 213.488281 L 182.785156 213.488281 L 182.785156 205.347656 L 158.359375 205.347656 L 158.359375 197.203125 L 150.21875 197.203125 L 150.21875 189.0625 L 158.359375 189.0625 L 158.359375 180.921875 L 142.074219 180.921875 L 142.074219 172.777344 L 166.5 172.777344 L 166.5 197.203125 L 174.644531 197.203125 L 174.644531 189.0625 L 182.785156 189.0625 L 182.785156 180.921875 L 190.929688 180.921875 L 190.929688 189.0625 L 199.070312 189.0625 L 199.070312 197.203125 L 190.929688 197.203125 L 190.929688 205.347656 L 199.070312 205.347656 L 199.070312 197.203125 L 207.210938 197.203125 L 207.210938 189.0625 L 215.355469 189.0625 L 215.355469 180.921875 L 207.210938 180.921875 L 207.210938 172.777344 L 215.355469 172.777344 L 215.355469 148.351562 L 207.210938 148.351562 L 207.210938 156.492188 L 199.070312 156.492188 L 199.070312 148.351562 L 190.929688 148.351562 Z M 85.078125 115.78125 L 93.222656 115.78125 L 93.222656 123.925781 L 101.363281 123.925781 L 101.363281 132.066406 L 93.222656 132.066406 L 93.222656 140.210938 L 85.078125 140.210938 Z M 101.363281 115.78125 L 109.507812 115.78125 L 109.507812 123.925781 L 101.363281 123.925781 Z M 117.648438 115.78125 L 125.789062 115.78125 L 125.789062 123.925781 L 117.648438 123.925781 Z M 133.933594 115.78125 L 142.074219 115.78125 L 142.074219 123.925781 L 133.933594 123.925781 Z M 247.925781 115.78125 L 256.066406 115.78125 L 256.066406 123.925781 L 247.925781 123.925781 Z M 272.351562 115.78125 L 280.492188 115.78125 L 280.492188 123.925781 L 272.351562 123.925781 Z M 109.507812 123.925781 L 117.648438 123.925781 L 117.648438 132.066406 L 109.507812 132.066406 Z M 125.789062 123.925781 L 133.933594 123.925781 L 133.933594 132.066406 L 125.789062 132.066406 Z M 142.074219 123.925781 L 150.21875 123.925781 L 150.21875 132.066406 L 142.074219 132.066406 Z M 215.355469 123.925781 L 223.496094 123.925781 L 223.496094 132.066406 L 215.355469 132.066406 Z M 280.492188 123.925781 L 288.636719 123.925781 L 288.636719 140.210938 L 280.492188 140.210938 L 280.492188 148.351562 L 288.636719 148.351562 L 288.636719 172.777344 L 280.492188 172.777344 L 280.492188 180.921875 L 272.351562 180.921875 L 272.351562 172.777344 L 264.207031 172.777344 L 264.207031 164.636719 L 280.492188 164.636719 L 280.492188 156.492188 L 272.351562 156.492188 L 272.351562 140.210938 L 264.207031 140.210938 L 264.207031 132.066406 L 280.492188 132.066406 Z M 117.648438 132.066406 L 125.789062 132.066406 L 125.789062 140.210938 L 133.933594 140.210938 L 133.933594 148.351562 L 142.074219 148.351562 L 142.074219 156.492188 L 125.789062 156.492188 L 125.789062 148.351562 L 117.648438 148.351562 Z M 133.933594 132.066406 L 142.074219 132.066406 L 142.074219 140.210938 L 133.933594 140.210938 Z M 174.644531 132.066406 L 182.785156 132.066406 L 182.785156 140.210938 L 174.644531 140.210938 Z M 101.363281 140.210938 L 109.507812 140.210938 L 109.507812 148.351562 L 117.648438 148.351562 L 117.648438 156.492188 L 109.507812 156.492188 L 109.507812 180.921875 L 93.222656 180.921875 L 93.222656 172.777344 L 101.363281 172.777344 L 101.363281 164.636719 L 93.222656 164.636719 L 93.222656 156.492188 L 85.078125 156.492188 L 85.078125 148.351562 L 101.363281 148.351562 Z M 142.074219 140.210938 L 158.359375 140.210938 L 158.359375 156.492188 L 166.5 156.492188 L 166.5 140.210938 L 174.644531 140.210938 L 174.644531 148.351562 L 182.785156 148.351562 L 182.785156 164.636719 L 150.21875 164.636719 L 150.21875 148.351562 L 142.074219 148.351562 Z M 231.640625 140.210938 L 231.640625 148.351562 L 239.78125 148.351562 L 239.78125 140.210938 Z M 256.066406 148.351562 L 264.207031 148.351562 L 264.207031 164.636719 L 256.066406 164.636719 Z M 223.496094 156.492188 L 223.496094 172.777344 L 231.640625 172.777344 L 231.640625 156.492188 Z M 85.078125 164.636719 L 93.222656 164.636719 L 93.222656 172.777344 L 85.078125 172.777344 Z M 133.933594 164.636719 L 142.074219 164.636719 L 142.074219 172.777344 L 133.933594 172.777344 Z M 190.929688 164.636719 L 199.070312 164.636719 L 199.070312 172.777344 L 190.929688 172.777344 Z M 117.648438 172.777344 L 133.933594 172.777344 L 133.933594 180.921875 L 142.074219 180.921875 L 142.074219 189.0625 L 109.507812 189.0625 L 109.507812 180.921875 L 117.648438 180.921875 Z M 174.644531 172.777344 L 182.785156 172.777344 L 182.785156 180.921875 L 174.644531 180.921875 Z M 85.078125 180.921875 L 93.222656 180.921875 L 93.222656 189.0625 L 85.078125 189.0625 Z M 223.496094 189.0625 L 223.496094 213.488281 L 247.925781 213.488281 L 247.925781 189.0625 Z M 272.351562 189.0625 L 288.636719 189.0625 L 288.636719 205.347656 L 280.492188 205.347656 L 280.492188 213.488281 L 288.636719 213.488281 L 288.636719 221.632812 L 272.351562 221.632812 Z M 85.078125 197.203125 L 142.074219 197.203125 L 142.074219 254.199219 L 85.078125 254.199219 Z M 231.640625 197.203125 L 239.78125 197.203125 L 239.78125 205.347656 L 231.640625 205.347656 Z M 93.222656 205.347656 L 93.222656 246.058594 L 133.933594 246.058594 L 133.933594 205.347656 Z M 101.363281 213.488281 L 125.789062 213.488281 L 125.789062 237.914062 L 101.363281 237.914062 Z M 150.21875 213.488281 L 182.785156 213.488281 L 182.785156 229.773438 L 158.359375 229.773438 L 158.359375 221.632812 L 150.21875 221.632812 Z M 150.21875 229.773438 L 158.359375 229.773438 L 158.359375 237.914062 L 150.21875 237.914062 Z M 190.929688 229.773438 L 199.070312 229.773438 L 199.070312 237.914062 L 190.929688 237.914062 Z M 207.210938 229.773438 L 215.355469 229.773438 L 215.355469 237.914062 L 231.640625 237.914062 L 231.640625 254.199219 L 207.210938 254.199219 Z M 280.492188 229.773438 L 288.636719 229.773438 L 288.636719 237.914062 L 280.492188 237.914062 Z M 174.644531 237.914062 L 182.785156 237.914062 L 182.785156 246.058594 L 174.644531 246.058594 Z M 272.351562 237.914062 L 280.492188 237.914062 L 280.492188 246.058594 L 288.636719 246.058594 L 288.636719 254.199219 L 272.351562 254.199219 Z M 150.21875 246.058594 L 174.644531 246.058594 L 174.644531 254.199219 L 150.21875 254.199219 Z M 182.785156 246.058594 L 190.929688 246.058594 L 190.929688 254.199219 L 182.785156 254.199219 Z M 239.78125 246.058594 L 247.925781 246.058594 L 247.925781 254.199219 L 239.78125 254.199219 Z M 239.78125 246.058594 " fill-opacity="1" fill-rule="nonzero"/><g clip-path="url(#b03c271883)"><path fill="#ffffff" d="M 182.976562 196.644531 C 182.96875 195.445312 183.136719 194.269531 183.472656 193.121094 C 183.808594 191.96875 184.296875 190.890625 184.945312 189.882812 C 185.59375 188.871094 186.371094 187.976562 187.277344 187.191406 C 188.183594 186.410156 189.183594 185.769531 190.277344 185.273438 L 190.277344 155.960938 C 190.277344 155.675781 190.378906 155.429688 190.582031 155.226562 L 194.753906 151.050781 C 194.851562 150.953125 194.964844 150.878906 195.09375 150.828125 C 195.222656 150.773438 195.355469 150.746094 195.492188 150.746094 C 195.632812 150.746094 195.765625 150.773438 195.890625 150.828125 C 196.019531 150.878906 196.132812 150.953125 196.230469 151.050781 L 200.402344 155.226562 C 200.605469 155.429688 200.707031 155.675781 200.707031 155.960938 L 200.707031 160.136719 C 200.707031 160.421875 200.605469 160.667969 200.402344 160.871094 L 198.011719 163.265625 L 200.402344 165.65625 C 200.5 165.753906 200.574219 165.867188 200.628906 165.996094 C 200.683594 166.121094 200.707031 166.253906 200.707031 166.394531 C 200.707031 166.53125 200.683594 166.664062 200.628906 166.792969 C 200.574219 166.921875 200.5 167.035156 200.402344 167.132812 L 198.011719 169.523438 L 200.402344 171.914062 C 200.5 172.011719 200.574219 172.125 200.628906 172.253906 C 200.683594 172.382812 200.707031 172.515625 200.707031 172.652344 C 200.707031 172.792969 200.683594 172.925781 200.628906 173.050781 C 200.574219 173.179688 200.5 173.292969 200.402344 173.390625 L 198.011719 175.78125 L 200.402344 178.175781 C 200.605469 178.378906 200.707031 178.625 200.707031 178.910156 L 200.707031 185.273438 C 201.386719 185.585938 202.03125 185.953125 202.644531 186.382812 C 203.257812 186.808594 203.824219 187.285156 204.351562 187.816406 C 204.878906 188.34375 205.355469 188.914062 205.78125 189.527344 C 206.203125 190.140625 206.570312 190.789062 206.878906 191.46875 C 207.191406 192.148438 207.4375 192.847656 207.621094 193.570312 C 207.804688 194.296875 207.921875 195.027344 207.972656 195.773438 C 208.023438 196.519531 208.011719 197.261719 207.929688 198.003906 C 207.847656 198.746094 207.703125 199.472656 207.492188 200.191406 C 207.28125 200.90625 207.007812 201.597656 206.671875 202.265625 C 206.339844 202.929688 205.945312 203.5625 205.5 204.160156 C 205.050781 204.757812 204.554688 205.308594 204.007812 205.816406 C 203.460938 206.324219 202.871094 206.78125 202.242188 207.183594 C 201.617188 207.585938 200.957031 207.929688 200.265625 208.214844 C 199.578125 208.5 198.867188 208.722656 198.136719 208.878906 C 197.410156 209.039062 196.671875 209.128906 195.925781 209.15625 C 195.179688 209.179688 194.4375 209.140625 193.699219 209.035156 C 192.960938 208.925781 192.238281 208.753906 191.527344 208.519531 C 190.820312 208.285156 190.140625 207.984375 189.484375 207.628906 C 188.828125 207.269531 188.210938 206.855469 187.632812 206.386719 C 187.050781 205.917969 186.515625 205.402344 186.027344 204.839844 C 185.539062 204.273438 185.105469 203.671875 184.722656 203.027344 C 184.34375 202.386719 184.023438 201.714844 183.761719 201.015625 C 183.5 200.316406 183.304688 199.601562 183.171875 198.867188 C 183.039062 198.132812 182.976562 197.390625 182.976562 196.644531 Z M 198.621094 201.859375 C 198.621094 201.445312 198.542969 201.046875 198.382812 200.664062 C 198.226562 200.28125 198 199.941406 197.707031 199.648438 C 197.410156 199.355469 197.074219 199.128906 196.691406 198.96875 C 196.308594 198.808594 195.90625 198.730469 195.492188 198.730469 C 195.078125 198.730469 194.679688 198.808594 194.296875 198.96875 C 193.910156 199.128906 193.574219 199.355469 193.28125 199.648438 C 192.988281 199.941406 192.761719 200.28125 192.601562 200.664062 C 192.441406 201.046875 192.363281 201.445312 192.363281 201.859375 C 192.363281 202.277344 192.441406 202.675781 192.601562 203.058594 C 192.761719 203.441406 192.988281 203.78125 193.28125 204.074219 C 193.574219 204.367188 193.910156 204.59375 194.296875 204.75 C 194.679688 204.910156 195.078125 204.988281 195.492188 204.988281 C 195.90625 204.988281 196.304688 204.910156 196.691406 204.75 C 197.074219 204.59375 197.410156 204.367188 197.703125 204.074219 C 197.996094 203.777344 198.222656 203.441406 198.382812 203.058594 C 198.542969 202.675781 198.621094 202.273438 198.621094 201.859375 Z M 198.621094 201.859375 " fill-opacity="1" fill-rule="nonzero"/></g><g fill="#698aeb" fill-opacity="1"><g transform="translate(89.022076, 319.943065)"><g><path d="M 15.765625 2.8125 L 14.609375 0 L 7.703125 0 C 6.554688 0 5.578125 -0.398438 4.765625 -1.203125 C 3.960938 -2.015625 3.5625 -2.992188 3.5625 -4.140625 L 3.5625 -36.25 C 3.5625 -37.351562 3.960938 -38.296875 4.765625 -39.078125 C 5.578125 -39.867188 6.554688 -40.265625 7.703125 -40.265625 L 20.828125 -40.265625 C 21.972656 -40.265625 22.945312 -39.867188 23.75 -39.078125 C 24.5625 -38.296875 24.96875 -37.351562 24.96875 -36.25 L 24.96875 -4.140625 C 24.96875 -2.992188 24.5625 -2.015625 23.75 -1.203125 C 22.945312 -0.398438 21.972656 0 20.828125 0 L 19.96875 0 L 21.109375 2.8125 Z M 11.046875 -5.34375 L 12.421875 -5.34375 L 11.109375 -8.796875 L 16.515625 -8.796875 L 17.828125 -5.34375 C 18.296875 -5.425781 18.703125 -5.664062 19.046875 -6.0625 C 19.390625 -6.46875 19.5625 -6.921875 19.5625 -7.421875 L 19.5625 -32.96875 C 19.5625 -33.5 19.367188 -33.96875 18.984375 -34.375 C 18.597656 -34.78125 18.097656 -34.984375 17.484375 -34.984375 L 11.046875 -34.984375 C 10.429688 -34.984375 9.929688 -34.78125 9.546875 -34.375 C 9.160156 -33.96875 8.96875 -33.5 8.96875 -32.96875 L 8.96875 -7.421875 C 8.96875 -6.847656 9.160156 -6.359375 9.546875 -5.953125 C 9.929688 -5.546875 10.429688 -5.34375 11.046875 -5.34375 Z M 11.046875 -5.34375 "/></g></g></g><g fill="#698aeb" fill-opacity="1"><g transform="translate(117.549849, 319.943065)"><g><path d="M 11.328125 0 L 11.328125 -34.921875 L 3.34375 -34.921875 L 3.34375 -40.265625 L 24.6875 -40.265625 L 24.6875 -34.921875 L 16.6875 -34.921875 L 16.6875 0 Z M 11.328125 0 "/></g></g></g><g fill="#698aeb" fill-opacity="1"><g transform="translate(145.559983, 319.943065)"><g><path d="M 3.453125 0 L 3.453125 -40.265625 L 20.71875 -40.265625 C 21.820312 -40.265625 22.773438 -39.863281 23.578125 -39.0625 C 24.390625 -38.257812 24.796875 -37.28125 24.796875 -36.125 L 24.796875 -23.765625 C 24.796875 -22.609375 24.390625 -21.628906 23.578125 -20.828125 C 22.773438 -20.023438 21.820312 -19.625 20.71875 -19.625 L 19.5 -19.625 L 24.796875 0 L 19.5 0 L 14.15625 -19.625 L 8.796875 -19.625 L 8.796875 0 Z M 8.796875 -24.96875 L 17.4375 -24.96875 C 17.96875 -24.96875 18.441406 -25.164062 18.859375 -25.5625 C 19.285156 -25.96875 19.5 -26.460938 19.5 -27.046875 L 19.5 -32.84375 C 19.5 -33.425781 19.285156 -33.914062 18.859375 -34.3125 C 18.441406 -34.71875 17.96875 -34.921875 17.4375 -34.921875 L 8.796875 -34.921875 Z M 8.796875 -24.96875 "/></g></g></g><g fill="#ffffff" fill-opacity="1"><g transform="translate(173.807227, 319.943065)"><g><path d="M 7.703125 0 C 6.628906 0 5.671875 -0.398438 4.828125 -1.203125 C 3.984375 -2.015625 3.5625 -2.992188 3.5625 -4.140625 L 3.5625 -36.125 C 3.5625 -37.238281 3.984375 -38.207031 4.828125 -39.03125 C 5.671875 -39.851562 6.628906 -40.265625 7.703125 -40.265625 L 20.765625 -40.265625 C 21.953125 -40.265625 22.9375 -39.851562 23.71875 -39.03125 C 24.507812 -38.207031 24.90625 -37.238281 24.90625 -36.125 L 24.90625 -28.65625 L 19.5625 -27.4375 L 19.5625 -32.84375 C 19.5625 -33.382812 19.378906 -33.863281 19.015625 -34.28125 C 18.648438 -34.707031 18.160156 -34.921875 17.546875 -34.921875 L 10.984375 -34.921875 C 10.453125 -34.921875 9.972656 -34.707031 9.546875 -34.28125 C 9.128906 -33.863281 8.921875 -33.382812 8.921875 -32.84375 L 8.921875 -7.421875 C 8.921875 -6.804688 9.128906 -6.304688 9.546875 -5.921875 C 9.972656 -5.535156 10.453125 -5.34375 10.984375 -5.34375 L 17.546875 -5.34375 C 18.160156 -5.34375 18.648438 -5.535156 19.015625 -5.921875 C 19.378906 -6.304688 19.5625 -6.804688 19.5625 -7.421875 L 19.5625 -11.625 L 24.90625 -12.890625 L 24.90625 -4.140625 C 24.90625 -2.992188 24.507812 -2.015625 23.71875 -1.203125 C 22.9375 -0.398438 21.953125 0 20.765625 0 Z M 7.703125 0 "/></g></g></g><g fill="#ffffff" fill-opacity="1"><g transform="translate(202.277481, 319.943065)"><g><path d="M 6.96875 0 C 5.769531 0 4.769531 -0.410156 3.96875 -1.234375 C 3.164062 -2.054688 2.765625 -3.046875 2.765625 -4.203125 L 2.765625 -24.5625 C 2.765625 -25.71875 3.164062 -26.707031 3.96875 -27.53125 C 4.769531 -28.351562 5.769531 -28.765625 6.96875 -28.765625 L 14.78125 -28.765625 C 15.9375 -28.765625 16.914062 -28.351562 17.71875 -27.53125 C 18.519531 -26.707031 18.921875 -25.71875 18.921875 -24.5625 L 18.921875 -4.203125 C 18.921875 -3.046875 18.519531 -2.054688 17.71875 -1.234375 C 16.914062 -0.410156 15.9375 0 14.78125 0 Z M 10.234375 -5.40625 L 11.453125 -5.40625 C 12.023438 -5.40625 12.519531 -5.601562 12.9375 -6 C 13.363281 -6.40625 13.578125 -6.898438 13.578125 -7.484375 L 13.578125 -21.28125 C 13.578125 -21.863281 13.363281 -22.351562 12.9375 -22.75 C 12.519531 -23.15625 12.023438 -23.359375 11.453125 -23.359375 L 10.234375 -23.359375 C 9.660156 -23.359375 9.171875 -23.15625 8.765625 -22.75 C 8.367188 -22.351562 8.171875 -21.863281 8.171875 -21.28125 L 8.171875 -7.484375 C 8.171875 -6.898438 8.367188 -6.40625 8.765625 -6 C 9.171875 -5.601562 9.660156 -5.40625 10.234375 -5.40625 Z M 10.234375 -5.40625 "/></g></g></g><g fill="#ffffff" fill-opacity="1"><g transform="translate(223.558284, 319.943065)"><g><path d="M 6.5 0 C 5.3125 0 4.3125 -0.398438 3.5 -1.203125 C 2.695312 -2.015625 2.296875 -3.015625 2.296875 -4.203125 L 2.296875 -24.5625 C 2.296875 -25.75 2.695312 -26.742188 3.5 -27.546875 C 4.3125 -28.359375 5.3125 -28.765625 6.5 -28.765625 L 13.109375 -28.765625 L 13.109375 -41.890625 L 18.53125 -43.15625 L 18.53125 0 Z M 9.78125 -5.40625 L 13.109375 -5.40625 L 13.109375 -23.359375 L 9.78125 -23.359375 C 9.238281 -23.359375 8.753906 -23.164062 8.328125 -22.78125 C 7.910156 -22.394531 7.703125 -21.894531 7.703125 -21.28125 L 7.703125 -7.484375 C 7.703125 -6.941406 7.910156 -6.457031 8.328125 -6.03125 C 8.753906 -5.613281 9.238281 -5.40625 9.78125 -5.40625 Z M 9.78125 -5.40625 "/></g></g></g><g fill="#ffffff" fill-opacity="1"><g transform="translate(244.378954, 319.943065)"><g><path d="M 6.5 0 C 5.351562 0 4.363281 -0.410156 3.53125 -1.234375 C 2.707031 -2.054688 2.296875 -3.046875 2.296875 -4.203125 L 2.296875 -24.625 C 2.296875 -25.769531 2.707031 -26.742188 3.53125 -27.546875 C 4.363281 -28.359375 5.351562 -28.765625 6.5 -28.765625 L 14.328125 -28.765625 C 15.515625 -28.765625 16.507812 -28.359375 17.3125 -27.546875 C 18.125 -26.742188 18.53125 -25.769531 18.53125 -24.625 L 18.53125 -15.875 C 18.53125 -14.726562 18.125 -13.738281 17.3125 -12.90625 C 16.507812 -12.082031 15.515625 -11.671875 14.328125 -11.671875 L 7.703125 -11.671875 L 7.703125 -7.484375 C 7.703125 -6.898438 7.90625 -6.40625 8.3125 -6 C 8.71875 -5.601562 9.226562 -5.40625 9.84375 -5.40625 L 17.3125 -5.40625 L 18.53125 0 Z M 7.703125 -17.09375 L 11.046875 -17.09375 C 11.617188 -17.09375 12.101562 -17.289062 12.5 -17.6875 C 12.90625 -18.09375 13.109375 -18.582031 13.109375 -19.15625 L 13.109375 -21.28125 C 13.109375 -21.863281 12.90625 -22.351562 12.5 -22.75 C 12.101562 -23.15625 11.617188 -23.359375 11.046875 -23.359375 L 9.84375 -23.359375 C 9.226562 -23.359375 8.71875 -23.15625 8.3125 -22.75 C 7.90625 -22.351562 7.703125 -21.863281 7.703125 -21.28125 Z M 7.703125 -17.09375 "/></g></g></g><g fill="#ffffff" fill-opacity="1"><g transform="translate(265.199623, 319.943065)"><g><path d="M 6.4375 0 C 5.289062 0 4.3125 -0.410156 3.5 -1.234375 C 2.695312 -2.054688 2.296875 -3.046875 2.296875 -4.203125 L 2.296875 -8.96875 L 7.65625 -8.96875 L 7.65625 -7.484375 C 7.65625 -6.898438 7.863281 -6.40625 8.28125 -6 C 8.707031 -5.601562 9.207031 -5.40625 9.78125 -5.40625 L 10.984375 -5.40625 C 11.554688 -5.40625 12.046875 -5.601562 12.453125 -6 C 12.859375 -6.40625 13.0625 -6.898438 13.0625 -7.484375 L 13.0625 -9.609375 C 13.0625 -10.179688 12.859375 -10.664062 12.453125 -11.0625 C 12.046875 -11.46875 11.554688 -11.671875 10.984375 -11.671875 L 6.4375 -11.671875 C 5.289062 -11.671875 4.3125 -12.082031 3.5 -12.90625 C 2.695312 -13.738281 2.296875 -14.726562 2.296875 -15.875 L 2.296875 -24.5625 C 2.296875 -25.71875 2.695312 -26.707031 3.5 -27.53125 C 4.3125 -28.351562 5.289062 -28.765625 6.4375 -28.765625 L 14.328125 -28.765625 C 15.472656 -28.765625 16.445312 -28.351562 17.25 -27.53125 C 18.0625 -26.707031 18.46875 -25.71875 18.46875 -24.5625 L 18.46875 -19.796875 L 13.0625 -19.796875 L 13.0625 -21.28125 C 13.0625 -21.863281 12.859375 -22.351562 12.453125 -22.75 C 12.046875 -23.15625 11.554688 -23.359375 10.984375 -23.359375 L 9.78125 -23.359375 C 9.207031 -23.359375 8.707031 -23.15625 8.28125 -22.75 C 7.863281 -22.351562 7.65625 -21.863281 7.65625 -21.28125 L 7.65625 -19.15625 C 7.65625 -18.582031 7.863281 -18.09375 8.28125 -17.6875 C 8.707031 -17.289062 9.207031 -17.09375 9.78125 -17.09375 L 14.328125 -17.09375 C 15.472656 -17.09375 16.445312 -16.675781 17.25 -15.84375 C 18.0625 -15.019531 18.46875 -14.035156 18.46875 -12.890625 L 18.46875 -3.96875 C 18.425781 -2.894531 18.003906 -1.960938 17.203125 -1.171875 C 16.398438 -0.390625 15.441406 0 14.328125 0 Z M 6.4375 0 "/></g></g></g></svg>