<svg xmlns="http://www.w3.org/2000/svg" xmlns:xlink="http://www.w3.org/1999/xlink" width="500" zoomAndPan="magnify" viewBox="0 0 375 374.999991" height="500" preserveAspectRatio="xMidYMid meet" version="1.0"><defs><g/><clipPath id="a912605e0c"><path d="M 204.707031 161 L 228 161 L 228 214.898438 L 204.707031 214.898438 Z M 204.707031 161 " clip-rule="nonzero"/></clipPath></defs><path fill="#ffffff" d="M 93.132812 60.328125 L 156.039062 60.328125 L 156.039062 123.234375 L 93.132812 123.234375 Z M 165.027344 60.328125 L 209.960938 60.328125 L 209.960938 78.300781 L 200.972656 78.300781 L 200.972656 87.289062 L 191.988281 87.289062 L 191.988281 69.316406 L 174.011719 69.316406 L 174.011719 78.300781 L 183 78.300781 L 183 87.289062 L 174.011719 87.289062 L 174.011719 105.261719 L 165.027344 105.261719 Z M 218.945312 60.328125 L 281.851562 60.328125 L 281.851562 123.234375 L 218.945312 123.234375 Z M 102.121094 69.316406 L 102.121094 114.246094 L 147.054688 114.246094 L 147.054688 69.316406 Z M 227.933594 69.316406 L 227.933594 114.246094 L 272.867188 114.246094 L 272.867188 69.316406 Z M 111.105469 78.300781 L 138.066406 78.300781 L 138.066406 105.261719 L 111.105469 105.261719 Z M 236.917969 78.300781 L 263.878906 78.300781 L 263.878906 105.261719 L 236.917969 105.261719 Z M 191.988281 96.273438 L 200.972656 96.273438 L 200.972656 105.261719 L 209.960938 105.261719 L 209.960938 123.234375 L 200.972656 123.234375 L 200.972656 114.246094 L 191.988281 114.246094 Z M 174.011719 105.261719 L 183 105.261719 L 183 114.246094 L 174.011719 114.246094 Z M 165.027344 114.246094 L 174.011719 114.246094 L 174.011719 132.222656 L 165.027344 132.222656 Z M 183 114.246094 L 191.988281 114.246094 L 191.988281 132.222656 L 183 132.222656 Z M 102.121094 132.222656 L 120.09375 132.222656 L 120.09375 141.207031 L 129.082031 141.207031 L 129.082031 150.195312 L 120.09375 150.195312 L 120.09375 159.179688 L 102.121094 159.179688 L 102.121094 168.167969 L 93.132812 168.167969 L 93.132812 141.207031 L 102.121094 141.207031 Z M 129.082031 132.222656 L 138.066406 132.222656 L 138.066406 141.207031 L 129.082031 141.207031 Z M 147.054688 132.222656 L 165.027344 132.222656 L 165.027344 141.207031 L 147.054688 141.207031 Z M 174.011719 132.222656 L 183 132.222656 L 183 141.207031 L 174.011719 141.207031 Z M 191.988281 132.222656 L 200.972656 132.222656 L 200.972656 141.207031 L 209.960938 141.207031 L 209.960938 150.195312 L 183 150.195312 L 183 141.207031 L 191.988281 141.207031 Z M 218.945312 132.222656 L 227.933594 132.222656 L 227.933594 141.207031 L 218.945312 141.207031 Z M 236.917969 132.222656 L 281.851562 132.222656 L 281.851562 159.179688 L 254.890625 159.179688 L 254.890625 150.195312 L 272.867188 150.195312 L 272.867188 141.207031 L 245.90625 141.207031 L 245.90625 159.179688 L 236.917969 159.179688 L 236.917969 168.167969 L 254.890625 168.167969 L 254.890625 186.140625 L 245.90625 186.140625 L 245.90625 195.125 L 254.890625 195.125 L 254.890625 204.113281 L 236.917969 204.113281 L 236.917969 195.125 L 227.933594 195.125 L 227.933594 159.179688 L 209.960938 159.179688 L 209.960938 150.195312 L 227.933594 150.195312 L 227.933594 141.207031 L 236.917969 141.207031 Z M 129.082031 150.195312 L 138.066406 150.195312 L 138.066406 159.179688 L 147.054688 159.179688 L 147.054688 168.167969 L 165.027344 168.167969 L 165.027344 159.179688 L 147.054688 159.179688 L 147.054688 150.195312 L 174.011719 150.195312 L 174.011719 159.179688 L 191.988281 159.179688 L 191.988281 177.152344 L 183 177.152344 L 183 168.167969 L 174.011719 168.167969 L 174.011719 195.125 L 165.027344 195.125 L 165.027344 177.152344 L 129.082031 177.152344 L 129.082031 168.167969 L 120.09375 168.167969 L 120.09375 159.179688 L 129.082031 159.179688 Z M 200.972656 168.167969 L 218.945312 168.167969 L 218.945312 204.113281 L 209.960938 204.113281 L 209.960938 177.152344 L 200.972656 177.152344 Z M 272.867188 168.167969 L 281.851562 168.167969 L 281.851562 195.125 L 263.878906 195.125 L 263.878906 186.140625 L 272.867188 186.140625 Z M 191.988281 177.152344 L 200.972656 177.152344 L 200.972656 186.140625 L 191.988281 186.140625 Z M 93.132812 186.140625 L 156.039062 186.140625 L 156.039062 249.046875 L 93.132812 249.046875 Z M 183 186.140625 L 191.988281 186.140625 L 191.988281 195.125 L 183 195.125 Z M 102.121094 195.125 L 102.121094 240.058594 L 147.054688 240.058594 L 147.054688 195.125 Z M 111.105469 204.113281 L 138.066406 204.113281 L 138.066406 231.074219 L 111.105469 231.074219 Z M 165.027344 204.113281 L 200.972656 204.113281 L 200.972656 213.101562 L 191.988281 213.101562 L 191.988281 240.058594 L 183 240.058594 L 183 231.074219 L 174.011719 231.074219 L 174.011719 240.058594 L 165.027344 240.058594 L 165.027344 222.085938 L 174.011719 222.085938 L 174.011719 213.101562 L 165.027344 213.101562 Z M 218.945312 204.113281 L 236.917969 204.113281 L 236.917969 213.101562 L 245.90625 213.101562 L 245.90625 249.046875 L 236.917969 249.046875 L 236.917969 231.074219 L 227.933594 231.074219 L 227.933594 222.085938 L 218.945312 222.085938 Z M 254.890625 213.101562 L 272.867188 213.101562 L 272.867188 222.085938 L 254.890625 222.085938 Z M 200.972656 222.085938 L 209.960938 222.085938 L 209.960938 231.074219 L 200.972656 231.074219 Z M 272.867188 222.085938 L 281.851562 222.085938 L 281.851562 231.074219 L 272.867188 231.074219 Z M 218.945312 231.074219 L 227.933594 231.074219 L 227.933594 249.046875 L 218.945312 249.046875 Z M 263.878906 231.074219 L 272.867188 231.074219 L 272.867188 240.058594 L 281.851562 240.058594 L 281.851562 249.046875 L 263.878906 249.046875 Z M 174.011719 240.058594 L 183 240.058594 L 183 249.046875 L 174.011719 249.046875 Z M 200.972656 240.058594 L 209.960938 240.058594 L 209.960938 249.046875 L 200.972656 249.046875 Z M 200.972656 240.058594 " fill-opacity="1" fill-rule="nonzero"/><g clip-path="url(#a912605e0c)"><path fill="#ffffff" d="M 204.707031 202.828125 C 204.703125 201.738281 204.855469 200.675781 205.160156 199.628906 C 205.464844 198.585938 205.910156 197.605469 206.496094 196.691406 C 207.085938 195.777344 207.789062 194.964844 208.613281 194.253906 C 209.433594 193.542969 210.34375 192.960938 211.332031 192.511719 L 211.332031 165.921875 C 211.332031 165.664062 211.425781 165.4375 211.609375 165.253906 L 215.394531 161.46875 C 215.578125 161.285156 215.800781 161.191406 216.0625 161.191406 C 216.324219 161.191406 216.546875 161.285156 216.734375 161.46875 L 220.519531 165.253906 C 220.703125 165.4375 220.796875 165.664062 220.796875 165.921875 L 220.796875 169.707031 C 220.796875 169.96875 220.703125 170.191406 220.519531 170.378906 L 218.347656 172.546875 L 220.519531 174.71875 C 220.703125 174.902344 220.796875 175.125 220.796875 175.386719 C 220.796875 175.648438 220.703125 175.871094 220.519531 176.054688 L 218.347656 178.226562 L 220.519531 180.394531 C 220.703125 180.578125 220.796875 180.800781 220.796875 181.0625 C 220.796875 181.324219 220.703125 181.546875 220.519531 181.734375 L 218.347656 183.902344 L 220.519531 186.074219 C 220.703125 186.257812 220.796875 186.480469 220.796875 186.742188 L 220.796875 192.511719 C 221.410156 192.796875 221.996094 193.128906 222.550781 193.515625 C 223.105469 193.90625 223.625 194.339844 224.101562 194.816406 C 224.578125 195.296875 225.011719 195.816406 225.394531 196.371094 C 225.78125 196.929688 226.113281 197.515625 226.394531 198.132812 C 226.675781 198.746094 226.898438 199.382812 227.0625 200.039062 C 227.230469 200.695312 227.335938 201.363281 227.386719 202.039062 C 227.433594 202.710938 227.417969 203.386719 227.347656 204.058594 C 227.273438 204.734375 227.140625 205.394531 226.949219 206.042969 C 226.757812 206.691406 226.507812 207.320312 226.207031 207.925781 C 225.902344 208.53125 225.546875 209.101562 225.140625 209.644531 C 224.734375 210.1875 224.28125 210.6875 223.785156 211.148438 C 223.289062 211.609375 222.757812 212.023438 222.1875 212.386719 C 221.617188 212.753906 221.019531 213.066406 220.394531 213.324219 C 219.769531 213.582031 219.125 213.78125 218.464844 213.925781 C 217.800781 214.070312 217.132812 214.152344 216.457031 214.175781 C 215.78125 214.199219 215.105469 214.164062 214.4375 214.066406 C 213.765625 213.96875 213.109375 213.8125 212.46875 213.601562 C 211.824219 213.386719 211.207031 213.117188 210.613281 212.789062 C 210.019531 212.464844 209.460938 212.089844 208.933594 211.664062 C 208.40625 211.242188 207.921875 210.773438 207.476562 210.261719 C 207.035156 209.75 206.640625 209.203125 206.292969 208.617188 C 205.949219 208.035156 205.660156 207.429688 205.421875 206.792969 C 205.1875 206.160156 205.007812 205.507812 204.886719 204.84375 C 204.769531 204.175781 204.707031 203.503906 204.707031 202.828125 Z M 218.902344 207.558594 C 218.902344 207.183594 218.832031 206.820312 218.6875 206.472656 C 218.542969 206.125 218.335938 205.816406 218.070312 205.550781 C 217.804688 205.285156 217.496094 205.082031 217.148438 204.9375 C 216.800781 204.792969 216.441406 204.71875 216.0625 204.71875 C 215.6875 204.71875 215.324219 204.792969 214.976562 204.9375 C 214.628906 205.082031 214.324219 205.285156 214.054688 205.550781 C 213.789062 205.816406 213.585938 206.125 213.441406 206.472656 C 213.296875 206.820312 213.226562 207.183594 213.226562 207.558594 C 213.226562 207.933594 213.296875 208.296875 213.441406 208.644531 C 213.585938 208.992188 213.789062 209.300781 214.054688 209.566406 C 214.324219 209.832031 214.628906 210.039062 214.976562 210.179688 C 215.324219 210.324219 215.6875 210.398438 216.0625 210.398438 C 216.441406 210.398438 216.800781 210.324219 217.148438 210.179688 C 217.496094 210.035156 217.804688 209.832031 218.070312 209.566406 C 218.335938 209.300781 218.542969 208.992188 218.6875 208.644531 C 218.828125 208.296875 218.902344 207.933594 218.902344 207.558594 Z M 218.902344 207.558594 " fill-opacity="1" fill-rule="nonzero"/></g><g fill="#698aeb" fill-opacity="1"><g transform="translate(89.022076, 319.940984)"><g><path d="M 15.765625 2.8125 L 14.609375 0 L 7.703125 0 C 6.554688 0 5.578125 -0.398438 4.765625 -1.203125 C 3.960938 -2.015625 3.5625 -2.992188 3.5625 -4.140625 L 3.5625 -36.25 C 3.5625 -37.351562 3.960938 -38.296875 4.765625 -39.078125 C 5.578125 -39.867188 6.554688 -40.265625 7.703125 -40.265625 L 20.828125 -40.265625 C 21.972656 -40.265625 22.945312 -39.867188 23.75 -39.078125 C 24.5625 -38.296875 24.96875 -37.351562 24.96875 -36.25 L 24.96875 -4.140625 C 24.96875 -2.992188 24.5625 -2.015625 23.75 -1.203125 C 22.945312 -0.398438 21.972656 0 20.828125 0 L 19.96875 0 L 21.109375 2.8125 Z M 11.046875 -5.34375 L 12.421875 -5.34375 L 11.109375 -8.796875 L 16.515625 -8.796875 L 17.828125 -5.34375 C 18.296875 -5.425781 18.703125 -5.664062 19.046875 -6.0625 C 19.390625 -6.46875 19.5625 -6.921875 19.5625 -7.421875 L 19.5625 -32.96875 C 19.5625 -33.5 19.367188 -33.96875 18.984375 -34.375 C 18.597656 -34.78125 18.097656 -34.984375 17.484375 -34.984375 L 11.046875 -34.984375 C 10.429688 -34.984375 9.929688 -34.78125 9.546875 -34.375 C 9.160156 -33.96875 8.96875 -33.5 8.96875 -32.96875 L 8.96875 -7.421875 C 8.96875 -6.847656 9.160156 -6.359375 9.546875 -5.953125 C 9.929688 -5.546875 10.429688 -5.34375 11.046875 -5.34375 Z M 11.046875 -5.34375 "/></g></g></g><g fill="#698aeb" fill-opacity="1"><g transform="translate(117.549849, 319.940984)"><g><path d="M 11.328125 0 L 11.328125 -34.921875 L 3.34375 -34.921875 L 3.34375 -40.265625 L 24.6875 -40.265625 L 24.6875 -34.921875 L 16.6875 -34.921875 L 16.6875 0 Z M 11.328125 0 "/></g></g></g><g fill="#698aeb" fill-opacity="1"><g transform="translate(145.559983, 319.940984)"><g><path d="M 3.453125 0 L 3.453125 -40.265625 L 20.71875 -40.265625 C 21.820312 -40.265625 22.773438 -39.863281 23.578125 -39.0625 C 24.390625 -38.257812 24.796875 -37.28125 24.796875 -36.125 L 24.796875 -23.765625 C 24.796875 -22.609375 24.390625 -21.628906 23.578125 -20.828125 C 22.773438 -20.023438 21.820312 -19.625 20.71875 -19.625 L 19.5 -19.625 L 24.796875 0 L 19.5 0 L 14.15625 -19.625 L 8.796875 -19.625 L 8.796875 0 Z M 8.796875 -24.96875 L 17.4375 -24.96875 C 17.96875 -24.96875 18.441406 -25.164062 18.859375 -25.5625 C 19.285156 -25.96875 19.5 -26.460938 19.5 -27.046875 L 19.5 -32.84375 C 19.5 -33.425781 19.285156 -33.914062 18.859375 -34.3125 C 18.441406 -34.71875 17.96875 -34.921875 17.4375 -34.921875 L 8.796875 -34.921875 Z M 8.796875 -24.96875 "/></g></g></g><g fill="#ffffff" fill-opacity="1"><g transform="translate(173.807227, 319.940984)"><g><path d="M 7.703125 0 C 6.628906 0 5.671875 -0.398438 4.828125 -1.203125 C 3.984375 -2.015625 3.5625 -2.992188 3.5625 -4.140625 L 3.5625 -36.125 C 3.5625 -37.238281 3.984375 -38.207031 4.828125 -39.03125 C 5.671875 -39.851562 6.628906 -40.265625 7.703125 -40.265625 L 20.765625 -40.265625 C 21.953125 -40.265625 22.9375 -39.851562 23.71875 -39.03125 C 24.507812 -38.207031 24.90625 -37.238281 24.90625 -36.125 L 24.90625 -28.65625 L 19.5625 -27.4375 L 19.5625 -32.84375 C 19.5625 -33.382812 19.378906 -33.863281 19.015625 -34.28125 C 18.648438 -34.707031 18.160156 -34.921875 17.546875 -34.921875 L 10.984375 -34.921875 C 10.453125 -34.921875 9.972656 -34.707031 9.546875 -34.28125 C 9.128906 -33.863281 8.921875 -33.382812 8.921875 -32.84375 L 8.921875 -7.421875 C 8.921875 -6.804688 9.128906 -6.304688 9.546875 -5.921875 C 9.972656 -5.535156 10.453125 -5.34375 10.984375 -5.34375 L 17.546875 -5.34375 C 18.160156 -5.34375 18.648438 -5.535156 19.015625 -5.921875 C 19.378906 -6.304688 19.5625 -6.804688 19.5625 -7.421875 L 19.5625 -11.625 L 24.90625 -12.890625 L 24.90625 -4.140625 C 24.90625 -2.992188 24.507812 -2.015625 23.71875 -1.203125 C 22.9375 -0.398438 21.953125 0 20.765625 0 Z M 7.703125 0 "/></g></g></g><g fill="#ffffff" fill-opacity="1"><g transform="translate(202.277481, 319.940984)"><g><path d="M 6.96875 0 C 5.769531 0 4.769531 -0.410156 3.96875 -1.234375 C 3.164062 -2.054688 2.765625 -3.046875 2.765625 -4.203125 L 2.765625 -24.5625 C 2.765625 -25.71875 3.164062 -26.707031 3.96875 -27.53125 C 4.769531 -28.351562 5.769531 -28.765625 6.96875 -28.765625 L 14.78125 -28.765625 C 15.9375 -28.765625 16.914062 -28.351562 17.71875 -27.53125 C 18.519531 -26.707031 18.921875 -25.71875 18.921875 -24.5625 L 18.921875 -4.203125 C 18.921875 -3.046875 18.519531 -2.054688 17.71875 -1.234375 C 16.914062 -0.410156 15.9375 0 14.78125 0 Z M 10.234375 -5.40625 L 11.453125 -5.40625 C 12.023438 -5.40625 12.519531 -5.601562 12.9375 -6 C 13.363281 -6.40625 13.578125 -6.898438 13.578125 -7.484375 L 13.578125 -21.28125 C 13.578125 -21.863281 13.363281 -22.351562 12.9375 -22.75 C 12.519531 -23.15625 12.023438 -23.359375 11.453125 -23.359375 L 10.234375 -23.359375 C 9.660156 -23.359375 9.171875 -23.15625 8.765625 -22.75 C 8.367188 -22.351562 8.171875 -21.863281 8.171875 -21.28125 L 8.171875 -7.484375 C 8.171875 -6.898438 8.367188 -6.40625 8.765625 -6 C 9.171875 -5.601562 9.660156 -5.40625 10.234375 -5.40625 Z M 10.234375 -5.40625 "/></g></g></g><g fill="#ffffff" fill-opacity="1"><g transform="translate(223.558284, 319.940984)"><g><path d="M 6.5 0 C 5.3125 0 4.3125 -0.398438 3.5 -1.203125 C 2.695312 -2.015625 2.296875 -3.015625 2.296875 -4.203125 L 2.296875 -24.5625 C 2.296875 -25.75 2.695312 -26.742188 3.5 -27.546875 C 4.3125 -28.359375 5.3125 -28.765625 6.5 -28.765625 L 13.109375 -28.765625 L 13.109375 -41.890625 L 18.53125 -43.15625 L 18.53125 0 Z M 9.78125 -5.40625 L 13.109375 -5.40625 L 13.109375 -23.359375 L 9.78125 -23.359375 C 9.238281 -23.359375 8.753906 -23.164062 8.328125 -22.78125 C 7.910156 -22.394531 7.703125 -21.894531 7.703125 -21.28125 L 7.703125 -7.484375 C 7.703125 -6.941406 7.910156 -6.457031 8.328125 -6.03125 C 8.753906 -5.613281 9.238281 -5.40625 9.78125 -5.40625 Z M 9.78125 -5.40625 "/></g></g></g><g fill="#ffffff" fill-opacity="1"><g transform="translate(244.378954, 319.940984)"><g><path d="M 6.5 0 C 5.351562 0 4.363281 -0.410156 3.53125 -1.234375 C 2.707031 -2.054688 2.296875 -3.046875 2.296875 -4.203125 L 2.296875 -24.625 C 2.296875 -25.769531 2.707031 -26.742188 3.53125 -27.546875 C 4.363281 -28.359375 5.351562 -28.765625 6.5 -28.765625 L 14.328125 -28.765625 C 15.515625 -28.765625 16.507812 -28.359375 17.3125 -27.546875 C 18.125 -26.742188 18.53125 -25.769531 18.53125 -24.625 L 18.53125 -15.875 C 18.53125 -14.726562 18.125 -13.738281 17.3125 -12.90625 C 16.507812 -12.082031 15.515625 -11.671875 14.328125 -11.671875 L 7.703125 -11.671875 L 7.703125 -7.484375 C 7.703125 -6.898438 7.90625 -6.40625 8.3125 -6 C 8.71875 -5.601562 9.226562 -5.40625 9.84375 -5.40625 L 17.3125 -5.40625 L 18.53125 0 Z M 7.703125 -17.09375 L 11.046875 -17.09375 C 11.617188 -17.09375 12.101562 -17.289062 12.5 -17.6875 C 12.90625 -18.09375 13.109375 -18.582031 13.109375 -19.15625 L 13.109375 -21.28125 C 13.109375 -21.863281 12.90625 -22.351562 12.5 -22.75 C 12.101562 -23.15625 11.617188 -23.359375 11.046875 -23.359375 L 9.84375 -23.359375 C 9.226562 -23.359375 8.71875 -23.15625 8.3125 -22.75 C 7.90625 -22.351562 7.703125 -21.863281 7.703125 -21.28125 Z M 7.703125 -17.09375 "/></g></g></g><g fill="#ffffff" fill-opacity="1"><g transform="translate(265.199623, 319.940984)"><g><path d="M 6.4375 0 C 5.289062 0 4.3125 -0.410156 3.5 -1.234375 C 2.695312 -2.054688 2.296875 -3.046875 2.296875 -4.203125 L 2.296875 -8.96875 L 7.65625 -8.96875 L 7.65625 -7.484375 C 7.65625 -6.898438 7.863281 -6.40625 8.28125 -6 C 8.707031 -5.601562 9.207031 -5.40625 9.78125 -5.40625 L 10.984375 -5.40625 C 11.554688 -5.40625 12.046875 -5.601562 12.453125 -6 C 12.859375 -6.40625 13.0625 -6.898438 13.0625 -7.484375 L 13.0625 -9.609375 C 13.0625 -10.179688 12.859375 -10.664062 12.453125 -11.0625 C 12.046875 -11.46875 11.554688 -11.671875 10.984375 -11.671875 L 6.4375 -11.671875 C 5.289062 -11.671875 4.3125 -12.082031 3.5 -12.90625 C 2.695312 -13.738281 2.296875 -14.726562 2.296875 -15.875 L 2.296875 -24.5625 C 2.296875 -25.71875 2.695312 -26.707031 3.5 -27.53125 C 4.3125 -28.351562 5.289062 -28.765625 6.4375 -28.765625 L 14.328125 -28.765625 C 15.472656 -28.765625 16.445312 -28.351562 17.25 -27.53125 C 18.0625 -26.707031 18.46875 -25.71875 18.46875 -24.5625 L 18.46875 -19.796875 L 13.0625 -19.796875 L 13.0625 -21.28125 C 13.0625 -21.863281 12.859375 -22.351562 12.453125 -22.75 C 12.046875 -23.15625 11.554688 -23.359375 10.984375 -23.359375 L 9.78125 -23.359375 C 9.207031 -23.359375 8.707031 -23.15625 8.28125 -22.75 C 7.863281 -22.351562 7.65625 -21.863281 7.65625 -21.28125 L 7.65625 -19.15625 C 7.65625 -18.582031 7.863281 -18.09375 8.28125 -17.6875 C 8.707031 -17.289062 9.207031 -17.09375 9.78125 -17.09375 L 14.328125 -17.09375 C 15.472656 -17.09375 16.445312 -16.675781 17.25 -15.84375 C 18.0625 -15.019531 18.46875 -14.035156 18.46875 -12.890625 L 18.46875 -3.96875 C 18.425781 -2.894531 18.003906 -1.960938 17.203125 -1.171875 C 16.398438 -0.390625 15.441406 0 14.328125 0 Z M 6.4375 0 "/></g></g></g></svg>